<svg width="19" height="22" viewBox="0 0 19 22" fill="none" xmlns="http://www.w3.org/2000/svg">
<path opacity="0.3" d="M18.67 16.51V22H1.84V17.65L9.43 10.63C10.09 10.01 10.53 9.48 10.75 9.04C10.97 8.6 11.08 8.17 11.08 7.75C11.08 7.23 10.9 6.83 10.54 6.55C10.2 6.25 9.7 6.1 9.04 6.1C8.4 6.1 7.8 6.27 7.24 6.61C6.68 6.95 6.25 7.43 5.95 8.05L0.61 5.38C1.41 3.88 2.58 2.7 4.12 1.84C5.66 0.959999 7.52 0.519999 9.7 0.519999C11.36 0.519999 12.83 0.789999 14.11 1.33C15.39 1.87 16.39 2.64 17.11 3.64C17.83 4.64 18.19 5.79 18.19 7.09C18.19 8.25 17.94 9.34 17.44 10.36C16.96 11.36 16.01 12.5 14.59 13.78L11.59 16.51H18.67Z" fill="#415167"/>
</svg>
