<svg width="19" height="22" viewBox="0 0 19 22" fill="none" xmlns="http://www.w3.org/2000/svg">
<path opacity="0.3" d="M13.66 8.31C15.28 8.71 16.52 9.44 17.38 10.5C18.26 11.54 18.7 12.8 18.7 14.28C18.7 15.54 18.35 16.72 17.65 17.82C16.97 18.9 15.91 19.78 14.47 20.46C13.03 21.14 11.24 21.48 9.1 21.48C7.62 21.48 6.14 21.32 4.66 21C3.2 20.68 1.92 20.21 0.82 19.59L3.22 14.37C4.08 14.87 5 15.25 5.98 15.51C6.98 15.77 7.94 15.9 8.86 15.9C9.68 15.9 10.34 15.76 10.84 15.48C11.34 15.2 11.59 14.8 11.59 14.28C11.59 13.32 10.76 12.84 9.1 12.84H6.31V8.49L9.4 5.34H1.9V-1.43051e-06H17.56V4.35L13.66 8.31Z" fill="#415167"/>
</svg>
