<svg width="291" height="64" viewBox="0 0 291 64" fill="none" xmlns="http://www.w3.org/2000/svg">
<path d="M12.57 58.48C10.35 58.48 8.35 58.02 6.57 57.1C4.79 56.16 3.39 54.86 2.37 53.2C1.37 51.52 0.87 49.62 0.87 47.5C0.87 45.38 1.37 43.49 2.37 41.83C3.39 40.15 4.79 38.85 6.57 37.93C8.35 36.99 10.35 36.52 12.57 36.52C14.61 36.52 16.43 36.88 18.03 37.6C19.63 38.32 20.95 39.36 21.99 40.72L17.52 44.71C16.22 43.07 14.69 42.25 12.93 42.25C11.45 42.25 10.26 42.73 9.36 43.69C8.46 44.63 8.01 45.9 8.01 47.5C8.01 49.1 8.46 50.38 9.36 51.34C10.26 52.28 11.45 52.75 12.93 52.75C14.69 52.75 16.22 51.93 17.52 50.29L21.99 54.28C20.95 55.64 19.63 56.68 18.03 57.4C16.43 58.12 14.61 58.48 12.57 58.48ZM34.6048 58.48C32.3448 58.48 30.3148 58.01 28.5148 57.07C26.7148 56.13 25.3048 54.83 24.2848 53.17C23.2648 51.49 22.7548 49.6 22.7548 47.5C22.7548 45.4 23.2648 43.52 24.2848 41.86C25.3048 40.18 26.7148 38.87 28.5148 37.93C30.3148 36.99 32.3448 36.52 34.6048 36.52C36.8648 36.52 38.8948 36.99 40.6948 37.93C42.4948 38.87 43.9048 40.18 44.9248 41.86C45.9448 43.52 46.4548 45.4 46.4548 47.5C46.4548 49.6 45.9448 51.49 44.9248 53.17C43.9048 54.83 42.4948 56.13 40.6948 57.07C38.8948 58.01 36.8648 58.48 34.6048 58.48ZM34.6048 52.75C35.4848 52.75 36.2748 52.54 36.9748 52.12C37.6948 51.68 38.2648 51.07 38.6848 50.29C39.1048 49.49 39.3148 48.56 39.3148 47.5C39.3148 46.44 39.1048 45.52 38.6848 44.74C38.2648 43.94 37.6948 43.33 36.9748 42.91C36.2748 42.47 35.4848 42.25 34.6048 42.25C33.7248 42.25 32.9248 42.47 32.2048 42.91C31.5048 43.33 30.9448 43.94 30.5248 44.74C30.1048 45.52 29.8948 46.44 29.8948 47.5C29.8948 48.56 30.1048 49.49 30.5248 50.29C30.9448 51.07 31.5048 51.68 32.2048 52.12C32.9248 52.54 33.7248 52.75 34.6048 52.75ZM67.7745 58L67.7145 48.43L63.1545 56.11H60.0345L55.4745 48.76V58H49.0245V37H54.8445L61.6845 48.19L68.3445 37H74.1645L74.2245 58H67.7745ZM94.4475 47.02C95.6875 47.48 96.6475 48.15 97.3275 49.03C98.0075 49.91 98.3475 50.97 98.3475 52.21C98.3475 54.05 97.5875 55.48 96.0675 56.5C94.5475 57.5 92.3475 58 89.4675 58H77.6475V37H88.8675C91.6675 37 93.7775 37.5 95.1975 38.5C96.6375 39.5 97.3575 40.83 97.3575 42.49C97.3575 43.47 97.1075 44.35 96.6075 45.13C96.1275 45.91 95.4075 46.54 94.4475 47.02ZM84.6075 41.95V45.07H87.9075C89.4475 45.07 90.2175 44.55 90.2175 43.51C90.2175 42.47 89.4475 41.95 87.9075 41.95H84.6075ZM88.8675 53.05C90.4275 53.05 91.2075 52.5 91.2075 51.4C91.2075 50.3 90.4275 49.75 88.8675 49.75H84.6075V53.05H88.8675ZM111.861 58.48C109.601 58.48 107.571 58.01 105.771 57.07C103.971 56.13 102.561 54.83 101.541 53.17C100.521 51.49 100.011 49.6 100.011 47.5C100.011 45.4 100.521 43.52 101.541 41.86C102.561 40.18 103.971 38.87 105.771 37.93C107.571 36.99 109.601 36.52 111.861 36.52C114.121 36.52 116.151 36.99 117.951 37.93C119.751 38.87 121.161 40.18 122.181 41.86C123.201 43.52 123.711 45.4 123.711 47.5C123.711 49.6 123.201 51.49 122.181 53.17C121.161 54.83 119.751 56.13 117.951 57.07C116.151 58.01 114.121 58.48 111.861 58.48ZM111.861 52.75C112.741 52.75 113.531 52.54 114.231 52.12C114.951 51.68 115.521 51.07 115.941 50.29C116.361 49.49 116.571 48.56 116.571 47.5C116.571 46.44 116.361 45.52 115.941 44.74C115.521 43.94 114.951 43.33 114.231 42.91C113.531 42.47 112.741 42.25 111.861 42.25C110.981 42.25 110.181 42.47 109.461 42.91C108.761 43.33 108.201 43.94 107.781 44.74C107.361 45.52 107.151 46.44 107.151 47.5C107.151 48.56 107.361 49.49 107.781 50.29C108.201 51.07 108.761 51.68 109.461 52.12C110.181 52.54 110.981 52.75 111.861 52.75ZM145.384 37C147.324 37 149.014 37.32 150.454 37.96C151.894 38.6 153.004 39.52 153.784 40.72C154.564 41.92 154.954 43.32 154.954 44.92C154.954 46.52 154.564 47.92 153.784 49.12C153.004 50.32 151.894 51.24 150.454 51.88C149.014 52.52 147.324 52.84 145.384 52.84H142.354V58H135.274V37H145.384ZM144.934 47.38C145.894 47.38 146.614 47.17 147.094 46.75C147.574 46.31 147.814 45.7 147.814 44.92C147.814 44.14 147.574 43.54 147.094 43.12C146.614 42.68 145.894 42.46 144.934 42.46H142.354V47.38H144.934ZM177.976 37V58H170.896V50.26H164.356V58H157.276V37H164.356V44.44H170.896V37H177.976ZM181.388 37H188.468V58H181.388V37ZM212.576 37V58H206.756L198.776 48.46V58H191.876V37H197.696L205.676 46.54V37H212.576ZM235.091 37C237.031 37 238.721 37.32 240.161 37.96C241.601 38.6 242.711 39.52 243.491 40.72C244.271 41.92 244.661 43.32 244.661 44.92C244.661 46.52 244.271 47.92 243.491 49.12C242.711 50.32 241.601 51.24 240.161 51.88C238.721 52.52 237.031 52.84 235.091 52.84H232.061V58H224.981V37H235.091ZM234.641 47.38C235.601 47.38 236.321 47.17 236.801 46.75C237.281 46.31 237.521 45.7 237.521 44.92C237.521 44.14 237.281 43.54 236.801 43.12C236.321 42.68 235.601 42.46 234.641 42.46H232.061V47.38H234.641ZM267.683 37V58H260.603V50.26H254.063V58H246.983V37H254.063V44.44H260.603V37H267.683ZM288.555 52.66V58H271.095V37H288.165V42.34H278.055V44.8H286.935V49.9H278.055V52.66H288.555ZM282.165 35.29L279.645 32.98L277.125 35.29H272.925L276.765 30.49H282.525L286.365 35.29H282.165Z" fill="#415167"/>
<path d="M42.8838 5.16C43.0705 4.92 43.3038 4.8 43.5838 4.8C43.8238 4.8 44.0372 4.9 44.2238 5.1C44.4238 5.28667 44.5238 5.50667 44.5238 5.76C44.5238 6 44.4438 6.20667 44.2838 6.38L39.5638 12.26V18.06C39.5638 18.3933 39.4638 18.6533 39.2638 18.84C39.0772 19.0133 38.8305 19.1 38.5238 19.1C38.2172 19.1 37.9705 19.0133 37.7838 18.84C37.5972 18.6533 37.5038 18.3933 37.5038 18.06V12.26L32.7838 6.38C32.6238 6.20667 32.5438 5.99333 32.5438 5.74C32.5438 5.48667 32.6372 5.26667 32.8238 5.08C33.0105 4.89333 33.2305 4.8 33.4838 4.8C33.7505 4.8 33.9838 4.92 34.1838 5.16L38.5438 10.64L42.8838 5.16ZM48.7474 19.14C47.7874 19.14 46.9408 18.9333 46.2074 18.52C45.4874 18.1067 44.9274 17.52 44.5274 16.76C44.1408 15.9867 43.9474 15.0933 43.9474 14.08C43.9474 13.0533 44.1408 12.16 44.5274 11.4C44.9274 10.6267 45.4874 10.0333 46.2074 9.62C46.9408 9.20667 47.7874 9 48.7474 9C49.7074 9 50.5474 9.20667 51.2674 9.62C52.0008 10.0333 52.5608 10.6267 52.9474 11.4C53.3474 12.16 53.5474 13.0533 53.5474 14.08C53.5474 15.0933 53.3474 15.9867 52.9474 16.76C52.5608 17.52 52.0008 18.1067 51.2674 18.52C50.5474 18.9333 49.7074 19.14 48.7474 19.14ZM48.7474 17.54C49.6408 17.54 50.3208 17.2467 50.7874 16.66C51.2674 16.0733 51.5074 15.2133 51.5074 14.08C51.5074 12.96 51.2674 12.1067 50.7874 11.52C50.3074 10.92 49.6274 10.62 48.7474 10.62C47.8674 10.62 47.1874 10.92 46.7074 11.52C46.2274 12.1067 45.9874 12.96 45.9874 14.08C45.9874 15.2133 46.2208 16.0733 46.6874 16.66C47.1674 17.2467 47.8541 17.54 48.7474 17.54ZM63.3565 9.04C63.6632 9.04 63.9032 9.12667 64.0765 9.3C64.2632 9.47333 64.3565 9.71333 64.3565 10.02V18.16C64.3565 18.44 64.2632 18.6667 64.0765 18.84C63.8898 19.0133 63.6432 19.1 63.3365 19.1C63.0565 19.1 62.8298 19.02 62.6565 18.86C62.4832 18.6867 62.3965 18.46 62.3965 18.18V17.42C62.0898 17.98 61.6632 18.4067 61.1165 18.7C60.5832 18.9933 59.9832 19.14 59.3165 19.14C56.9432 19.14 55.7565 17.8333 55.7565 15.22V10.02C55.7565 9.71333 55.8432 9.47333 56.0165 9.3C56.2032 9.12667 56.4565 9.04 56.7765 9.04C57.0832 9.04 57.3232 9.12667 57.4965 9.3C57.6832 9.47333 57.7765 9.71333 57.7765 10.02V15.2C57.7765 15.9867 57.9365 16.5667 58.2565 16.94C58.5765 17.3133 59.0698 17.5 59.7365 17.5C60.5232 17.5 61.1498 17.2467 61.6165 16.74C62.0965 16.2333 62.3365 15.56 62.3365 14.72V10.02C62.3365 9.72667 62.4298 9.49333 62.6165 9.32C62.8032 9.13333 63.0498 9.04 63.3565 9.04ZM72.3032 9.04C72.9432 9 73.2632 9.27333 73.2632 9.86C73.2632 10.1533 73.1899 10.3733 73.0432 10.52C72.8965 10.6667 72.6432 10.7533 72.2832 10.78L71.6832 10.84C70.8432 10.92 70.2165 11.2133 69.8032 11.72C69.4032 12.2267 69.2032 12.84 69.2032 13.56V18.14C69.2032 18.46 69.1099 18.7 68.9232 18.86C68.7365 19.02 68.4965 19.1 68.2032 19.1C67.9099 19.1 67.6632 19.02 67.4632 18.86C67.2765 18.7 67.1832 18.46 67.1832 18.14V10C67.1832 9.69333 67.2765 9.46 67.4632 9.3C67.6632 9.12667 67.9099 9.04 68.2032 9.04C68.4699 9.04 68.6899 9.12667 68.8632 9.3C69.0499 9.46 69.1432 9.68667 69.1432 9.98V10.94C69.4099 10.3533 69.7965 9.90667 70.3032 9.6C70.8099 9.29333 71.3832 9.11333 72.0232 9.06L72.3032 9.04ZM81.0409 19.1C80.7342 19.1 80.4875 19.0067 80.3009 18.82C80.1142 18.6333 80.0209 18.38 80.0209 18.06V5.9C80.0209 5.59333 80.1075 5.35333 80.2809 5.18C80.4675 4.99333 80.7209 4.9 81.0409 4.9H85.8609C87.3542 4.9 88.5142 5.26667 89.3409 6C90.1675 6.73333 90.5809 7.77333 90.5809 9.12C90.5809 10.4533 90.1675 11.4933 89.3409 12.24C88.5142 12.9867 87.3542 13.36 85.8609 13.36H82.0809V18.06C82.0809 18.38 81.9875 18.6333 81.8009 18.82C81.6275 19.0067 81.3742 19.1 81.0409 19.1ZM85.6409 11.7C87.6142 11.7 88.6009 10.84 88.6009 9.12C88.6009 7.41333 87.6142 6.56 85.6409 6.56H82.0809V11.7H85.6409ZM100.136 16.54C100.322 16.54 100.476 16.6133 100.596 16.76C100.716 16.9067 100.776 17.0933 100.776 17.32C100.776 17.7067 100.536 18.0333 100.056 18.3C99.589 18.5667 99.0757 18.7733 98.5157 18.92C97.969 19.0667 97.4424 19.14 96.9357 19.14C95.389 19.14 94.169 18.6933 93.2757 17.8C92.3824 16.8933 91.9357 15.66 91.9357 14.1C91.9357 13.1 92.129 12.2133 92.5157 11.44C92.9157 10.6667 93.469 10.0667 94.1757 9.64C94.8957 9.21333 95.709 9 96.6157 9C97.9224 9 98.9557 9.42 99.7157 10.26C100.476 11.1 100.856 12.2333 100.856 13.66C100.856 14.1933 100.616 14.46 100.136 14.46H93.9557C94.089 16.5267 95.0824 17.56 96.9357 17.56C97.429 17.56 97.8557 17.4933 98.2157 17.36C98.5757 17.2267 98.9557 17.0533 99.3557 16.84C99.3957 16.8133 99.5024 16.76 99.6757 16.68C99.8624 16.5867 100.016 16.54 100.136 16.54ZM96.6557 10.48C95.8824 10.48 95.2624 10.7267 94.7957 11.22C94.329 11.7133 94.049 12.4067 93.9557 13.3H99.1157C99.0757 12.3933 98.8424 11.7 98.4157 11.22C98.0024 10.7267 97.4157 10.48 96.6557 10.48ZM108.202 9.04C108.842 9 109.162 9.27333 109.162 9.86C109.162 10.1533 109.088 10.3733 108.942 10.52C108.795 10.6667 108.542 10.7533 108.182 10.78L107.582 10.84C106.742 10.92 106.115 11.2133 105.702 11.72C105.302 12.2267 105.102 12.84 105.102 13.56V18.14C105.102 18.46 105.008 18.7 104.822 18.86C104.635 19.02 104.395 19.1 104.102 19.1C103.808 19.1 103.562 19.02 103.362 18.86C103.175 18.7 103.082 18.46 103.082 18.14V10C103.082 9.69333 103.175 9.46 103.362 9.3C103.562 9.12667 103.808 9.04 104.102 9.04C104.368 9.04 104.588 9.12667 104.762 9.3C104.948 9.46 105.042 9.68667 105.042 9.98V10.94C105.308 10.3533 105.695 9.90667 106.202 9.6C106.708 9.29333 107.282 9.11333 107.922 9.06L108.202 9.04ZM113.708 19.14C112.348 19.14 111.235 18.86 110.368 18.3C110.128 18.1533 109.955 18 109.848 17.84C109.755 17.68 109.708 17.5 109.708 17.3C109.708 17.0867 109.768 16.9067 109.888 16.76C110.008 16.6133 110.162 16.54 110.348 16.54C110.522 16.54 110.795 16.6467 111.168 16.86C111.568 17.0733 111.955 17.2467 112.328 17.38C112.715 17.5133 113.195 17.58 113.768 17.58C114.408 17.58 114.908 17.4667 115.268 17.24C115.628 17.0133 115.808 16.6933 115.808 16.28C115.808 16.0133 115.735 15.8 115.588 15.64C115.455 15.48 115.215 15.34 114.868 15.22C114.522 15.0867 114.008 14.9467 113.328 14.8C112.155 14.5467 111.308 14.2067 110.788 13.78C110.282 13.34 110.028 12.7467 110.028 12C110.028 11.4267 110.195 10.9133 110.528 10.46C110.862 9.99333 111.322 9.63333 111.908 9.38C112.495 9.12667 113.162 9 113.908 9C114.442 9 114.962 9.07333 115.468 9.22C115.975 9.35333 116.422 9.55333 116.808 9.82C117.248 10.1133 117.468 10.4533 117.468 10.84C117.468 11.0533 117.402 11.2333 117.268 11.38C117.148 11.5267 117.002 11.6 116.828 11.6C116.708 11.6 116.588 11.5733 116.468 11.52C116.348 11.4667 116.188 11.38 115.988 11.26C115.628 11.0467 115.288 10.88 114.968 10.76C114.662 10.64 114.275 10.58 113.808 10.58C113.248 10.58 112.795 10.7 112.448 10.94C112.115 11.18 111.948 11.5067 111.948 11.92C111.948 12.2933 112.102 12.5867 112.408 12.8C112.728 13 113.322 13.1933 114.188 13.38C115.082 13.5667 115.782 13.78 116.288 14.02C116.795 14.26 117.155 14.56 117.368 14.92C117.595 15.2667 117.708 15.7133 117.708 16.26C117.708 17.1267 117.342 17.8267 116.608 18.36C115.888 18.88 114.922 19.14 113.708 19.14ZM124.197 19.14C123.237 19.14 122.39 18.9333 121.657 18.52C120.937 18.1067 120.377 17.52 119.977 16.76C119.59 15.9867 119.397 15.0933 119.397 14.08C119.397 13.0533 119.59 12.16 119.977 11.4C120.377 10.6267 120.937 10.0333 121.657 9.62C122.39 9.20667 123.237 9 124.197 9C125.157 9 125.997 9.20667 126.717 9.62C127.45 10.0333 128.01 10.6267 128.397 11.4C128.797 12.16 128.997 13.0533 128.997 14.08C128.997 15.0933 128.797 15.9867 128.397 16.76C128.01 17.52 127.45 18.1067 126.717 18.52C125.997 18.9333 125.157 19.14 124.197 19.14ZM124.197 17.54C125.09 17.54 125.77 17.2467 126.237 16.66C126.717 16.0733 126.957 15.2133 126.957 14.08C126.957 12.96 126.717 12.1067 126.237 11.52C125.757 10.92 125.077 10.62 124.197 10.62C123.317 10.62 122.637 10.92 122.157 11.52C121.677 12.1067 121.437 12.96 121.437 14.08C121.437 15.2133 121.67 16.0733 122.137 16.66C122.617 17.2467 123.303 17.54 124.197 17.54ZM136.506 9C138.839 9 140.006 10.3133 140.006 12.94V18.14C140.006 18.4467 139.912 18.6867 139.726 18.86C139.552 19.02 139.306 19.1 138.986 19.1C138.679 19.1 138.432 19.0133 138.246 18.84C138.072 18.6667 137.986 18.4333 137.986 18.14V13.04C137.986 12.2133 137.819 11.6067 137.486 11.22C137.166 10.8333 136.659 10.64 135.966 10.64C135.152 10.64 134.499 10.8933 134.006 11.4C133.512 11.9067 133.266 12.5867 133.266 13.44V18.14C133.266 18.4333 133.172 18.6667 132.986 18.84C132.812 19.0133 132.572 19.1 132.266 19.1C131.959 19.1 131.712 19.0133 131.526 18.84C131.339 18.6667 131.246 18.4333 131.246 18.14V10C131.246 9.72 131.339 9.49333 131.526 9.32C131.726 9.13333 131.972 9.04 132.266 9.04C132.559 9.04 132.792 9.12667 132.966 9.3C133.139 9.47333 133.226 9.7 133.226 9.98V10.8C133.546 10.2133 133.992 9.76667 134.566 9.46C135.139 9.15333 135.786 9 136.506 9ZM146.869 9C148.162 9 149.122 9.32667 149.749 9.98C150.389 10.6333 150.709 11.6267 150.709 12.96V18.14C150.709 18.4467 150.622 18.6867 150.449 18.86C150.276 19.02 150.036 19.1 149.729 19.1C149.436 19.1 149.202 19.0133 149.029 18.84C148.856 18.6667 148.769 18.4333 148.769 18.14V17.4C148.516 17.96 148.136 18.3933 147.629 18.7C147.136 18.9933 146.556 19.14 145.889 19.14C145.249 19.14 144.662 19.0133 144.129 18.76C143.596 18.4933 143.176 18.1267 142.869 17.66C142.576 17.1933 142.429 16.6733 142.429 16.1C142.429 15.3933 142.609 14.84 142.969 14.44C143.342 14.0267 143.949 13.7333 144.789 13.56C145.642 13.3867 146.809 13.3 148.289 13.3H148.749V12.72C148.749 11.9733 148.596 11.4333 148.289 11.1C147.982 10.7667 147.489 10.6 146.809 10.6C146.342 10.6 145.902 10.66 145.489 10.78C145.076 10.9 144.622 11.0733 144.129 11.3C143.769 11.5 143.516 11.6 143.369 11.6C143.169 11.6 143.002 11.5267 142.869 11.38C142.749 11.2333 142.689 11.0467 142.689 10.82C142.689 10.62 142.742 10.4467 142.849 10.3C142.969 10.14 143.156 9.98667 143.409 9.84C143.876 9.58667 144.422 9.38667 145.049 9.24C145.676 9.08 146.282 9 146.869 9ZM146.249 17.64C146.982 17.64 147.582 17.3933 148.049 16.9C148.516 16.3933 148.749 15.7467 148.749 14.96V14.44H148.389C147.349 14.44 146.549 14.4867 145.989 14.58C145.429 14.6733 145.029 14.8333 144.789 15.06C144.549 15.2733 144.429 15.5867 144.429 16C144.429 16.48 144.602 16.8733 144.949 17.18C145.296 17.4867 145.729 17.64 146.249 17.64ZM154.492 19.1C154.199 19.1 153.952 19.02 153.752 18.86C153.566 18.7 153.472 18.46 153.472 18.14V5.78C153.472 5.46 153.566 5.22 153.752 5.06C153.952 4.88667 154.199 4.8 154.492 4.8C154.786 4.8 155.026 4.88667 155.212 5.06C155.399 5.22 155.492 5.46 155.492 5.78V18.14C155.492 18.46 155.399 18.7 155.212 18.86C155.026 19.02 154.786 19.1 154.492 19.1ZM159.336 19.1C159.043 19.1 158.796 19.02 158.596 18.86C158.409 18.7 158.316 18.46 158.316 18.14V10.02C158.316 9.7 158.409 9.46 158.596 9.3C158.796 9.12667 159.043 9.04 159.336 9.04C159.629 9.04 159.869 9.12667 160.056 9.3C160.243 9.46 160.336 9.7 160.336 10.02V18.14C160.336 18.46 160.243 18.7 160.056 18.86C159.869 19.02 159.629 19.1 159.336 19.1ZM159.336 7.08C158.949 7.08 158.643 6.97333 158.416 6.76C158.189 6.54667 158.076 6.26667 158.076 5.92C158.076 5.57333 158.189 5.3 158.416 5.1C158.643 4.88667 158.949 4.78 159.336 4.78C159.709 4.78 160.009 4.88667 160.236 5.1C160.476 5.3 160.596 5.57333 160.596 5.92C160.596 6.26667 160.483 6.54667 160.256 6.76C160.029 6.97333 159.723 7.08 159.336 7.08ZM170.38 17.44C170.673 17.44 170.893 17.5133 171.04 17.66C171.2 17.7933 171.28 17.98 171.28 18.22C171.28 18.46 171.2 18.6533 171.04 18.8C170.893 18.9333 170.673 19 170.38 19H163.54C163.246 19 163.013 18.92 162.84 18.76C162.666 18.5867 162.58 18.3733 162.58 18.12C162.58 17.8667 162.68 17.62 162.88 17.38L168.44 10.8H163.42C163.14 10.8 162.92 10.7333 162.76 10.6C162.613 10.4533 162.54 10.26 162.54 10.02C162.54 9.78 162.613 9.59333 162.76 9.46C162.92 9.31333 163.14 9.24 163.42 9.24H170.06C170.34 9.24 170.566 9.32667 170.74 9.5C170.926 9.67333 171.02 9.88 171.02 10.12C171.02 10.3733 170.92 10.62 170.72 10.86L165.16 17.44H170.38ZM180.683 16.54C180.869 16.54 181.023 16.6133 181.143 16.76C181.263 16.9067 181.323 17.0933 181.323 17.32C181.323 17.7067 181.083 18.0333 180.603 18.3C180.136 18.5667 179.623 18.7733 179.063 18.92C178.516 19.0667 177.989 19.14 177.483 19.14C175.936 19.14 174.716 18.6933 173.823 17.8C172.929 16.8933 172.483 15.66 172.483 14.1C172.483 13.1 172.676 12.2133 173.063 11.44C173.463 10.6667 174.016 10.0667 174.723 9.64C175.443 9.21333 176.256 9 177.163 9C178.469 9 179.503 9.42 180.263 10.26C181.023 11.1 181.403 12.2333 181.403 13.66C181.403 14.1933 181.163 14.46 180.683 14.46H174.503C174.636 16.5267 175.629 17.56 177.483 17.56C177.976 17.56 178.403 17.4933 178.763 17.36C179.123 17.2267 179.503 17.0533 179.903 16.84C179.943 16.8133 180.049 16.76 180.223 16.68C180.409 16.5867 180.563 16.54 180.683 16.54ZM177.203 10.48C176.429 10.48 175.809 10.7267 175.343 11.22C174.876 11.7133 174.596 12.4067 174.503 13.3H179.663C179.623 12.3933 179.389 11.7 178.963 11.22C178.549 10.7267 177.963 10.48 177.203 10.48ZM191.609 4.8C191.915 4.8 192.162 4.88667 192.349 5.06C192.535 5.23333 192.629 5.46667 192.629 5.76V18.12C192.629 18.4267 192.535 18.6667 192.349 18.84C192.175 19.0133 191.935 19.1 191.629 19.1C191.322 19.1 191.075 19.0133 190.889 18.84C190.715 18.6667 190.629 18.4267 190.629 18.12V17.32C190.335 17.9067 189.909 18.36 189.349 18.68C188.789 18.9867 188.142 19.14 187.409 19.14C186.569 19.14 185.815 18.9267 185.149 18.5C184.495 18.0733 183.982 17.4733 183.609 16.7C183.249 15.9267 183.069 15.04 183.069 14.04C183.069 13.0267 183.249 12.14 183.609 11.38C183.982 10.62 184.495 10.0333 185.149 9.62C185.802 9.20667 186.555 9 187.409 9C188.142 9 188.782 9.16 189.329 9.48C189.889 9.78667 190.315 10.2267 190.609 10.8V5.72C190.609 5.44 190.695 5.22 190.869 5.06C191.055 4.88667 191.302 4.8 191.609 4.8ZM187.889 17.54C188.755 17.54 189.429 17.24 189.909 16.64C190.389 16.04 190.629 15.1867 190.629 14.08C190.629 12.9733 190.389 12.12 189.909 11.52C189.442 10.92 188.769 10.62 187.889 10.62C187.009 10.62 186.322 10.92 185.829 11.52C185.349 12.1067 185.109 12.9467 185.109 14.04C185.109 15.1333 185.355 15.9933 185.849 16.62C186.342 17.2333 187.022 17.54 187.889 17.54ZM207.098 19.16C205.752 19.16 204.578 18.8733 203.578 18.3C202.578 17.7133 201.812 16.88 201.278 15.8C200.745 14.7067 200.478 13.42 200.478 11.94C200.478 10.4733 200.745 9.2 201.278 8.12C201.812 7.02667 202.578 6.19333 203.578 5.62C204.578 5.03333 205.752 4.74 207.098 4.74C207.978 4.74 208.812 4.88 209.598 5.16C210.385 5.42667 211.072 5.82 211.658 6.34C211.912 6.54 212.038 6.80667 212.038 7.14C212.038 7.38 211.972 7.58667 211.838 7.76C211.705 7.92 211.545 8 211.358 8C211.132 8 210.912 7.91333 210.698 7.74C210.058 7.26 209.472 6.92667 208.938 6.74C208.418 6.54 207.825 6.44 207.158 6.44C205.692 6.44 204.565 6.91333 203.778 7.86C202.992 8.80667 202.598 10.1667 202.598 11.94C202.598 13.7267 202.992 15.0933 203.778 16.04C204.565 16.9867 205.692 17.46 207.158 17.46C207.798 17.46 208.378 17.36 208.898 17.16C209.432 16.96 210.032 16.6267 210.698 16.16C210.965 15.9867 211.185 15.9 211.358 15.9C211.545 15.9 211.705 15.9867 211.838 16.16C211.972 16.32 212.038 16.52 212.038 16.76C212.038 17.0933 211.912 17.36 211.658 17.56C211.072 18.08 210.385 18.48 209.598 18.76C208.812 19.0267 207.978 19.16 207.098 19.16ZM218.298 19.14C217.338 19.14 216.492 18.9333 215.758 18.52C215.038 18.1067 214.478 17.52 214.078 16.76C213.692 15.9867 213.498 15.0933 213.498 14.08C213.498 13.0533 213.692 12.16 214.078 11.4C214.478 10.6267 215.038 10.0333 215.758 9.62C216.492 9.20667 217.338 9 218.298 9C219.258 9 220.098 9.20667 220.818 9.62C221.552 10.0333 222.112 10.6267 222.498 11.4C222.898 12.16 223.098 13.0533 223.098 14.08C223.098 15.0933 222.898 15.9867 222.498 16.76C222.112 17.52 221.552 18.1067 220.818 18.52C220.098 18.9333 219.258 19.14 218.298 19.14ZM218.298 17.54C219.192 17.54 219.872 17.2467 220.338 16.66C220.818 16.0733 221.058 15.2133 221.058 14.08C221.058 12.96 220.818 12.1067 220.338 11.52C219.858 10.92 219.178 10.62 218.298 10.62C217.418 10.62 216.738 10.92 216.258 11.52C215.778 12.1067 215.538 12.96 215.538 14.08C215.538 15.2133 215.772 16.0733 216.238 16.66C216.718 17.2467 217.405 17.54 218.298 17.54ZM229.908 6.44C229.242 6.49333 228.748 6.70667 228.428 7.08C228.108 7.44 227.948 7.97333 227.948 8.68V9.24H229.928C230.208 9.24 230.422 9.31333 230.568 9.46C230.728 9.59333 230.808 9.78 230.808 10.02C230.808 10.26 230.728 10.4533 230.568 10.6C230.422 10.7333 230.208 10.8 229.928 10.8H227.948V18.12C227.948 18.44 227.848 18.6867 227.648 18.86C227.462 19.02 227.222 19.1 226.928 19.1C226.635 19.1 226.395 19.02 226.208 18.86C226.022 18.6867 225.928 18.44 225.928 18.12V10.8H224.728C224.448 10.8 224.228 10.7333 224.068 10.6C223.922 10.4533 223.848 10.26 223.848 10.02C223.848 9.78 223.922 9.59333 224.068 9.46C224.228 9.31333 224.448 9.24 224.728 9.24H225.928V8.98C225.928 7.75333 226.242 6.79333 226.868 6.1C227.495 5.39333 228.382 5 229.528 4.92L230.048 4.88C230.475 4.85333 230.782 4.9 230.968 5.02C231.168 5.14 231.268 5.33333 231.268 5.6C231.268 6.06667 230.988 6.33333 230.428 6.4L229.908 6.44ZM236.666 6.44C235.999 6.49333 235.506 6.70667 235.186 7.08C234.866 7.44 234.706 7.97333 234.706 8.68V9.24H236.686C236.966 9.24 237.179 9.31333 237.326 9.46C237.486 9.59333 237.566 9.78 237.566 10.02C237.566 10.26 237.486 10.4533 237.326 10.6C237.179 10.7333 236.966 10.8 236.686 10.8H234.706V18.12C234.706 18.44 234.606 18.6867 234.406 18.86C234.219 19.02 233.979 19.1 233.686 19.1C233.393 19.1 233.153 19.02 232.966 18.86C232.779 18.6867 232.686 18.44 232.686 18.12V10.8H231.486C231.206 10.8 230.986 10.7333 230.826 10.6C230.679 10.4533 230.606 10.26 230.606 10.02C230.606 9.78 230.679 9.59333 230.826 9.46C230.986 9.31333 231.206 9.24 231.486 9.24H232.686V8.98C232.686 7.75333 232.999 6.79333 233.626 6.1C234.253 5.39333 235.139 5 236.286 4.92L236.806 4.88C237.233 4.85333 237.539 4.9 237.726 5.02C237.926 5.14 238.026 5.33333 238.026 5.6C238.026 6.06667 237.746 6.33333 237.186 6.4L236.666 6.44ZM246.444 16.54C246.631 16.54 246.784 16.6133 246.904 16.76C247.024 16.9067 247.084 17.0933 247.084 17.32C247.084 17.7067 246.844 18.0333 246.364 18.3C245.898 18.5667 245.384 18.7733 244.824 18.92C244.278 19.0667 243.751 19.14 243.244 19.14C241.698 19.14 240.478 18.6933 239.584 17.8C238.691 16.8933 238.244 15.66 238.244 14.1C238.244 13.1 238.438 12.2133 238.824 11.44C239.224 10.6667 239.778 10.0667 240.484 9.64C241.204 9.21333 242.018 9 242.924 9C244.231 9 245.264 9.42 246.024 10.26C246.784 11.1 247.164 12.2333 247.164 13.66C247.164 14.1933 246.924 14.46 246.444 14.46H240.264C240.398 16.5267 241.391 17.56 243.244 17.56C243.738 17.56 244.164 17.4933 244.524 17.36C244.884 17.2267 245.264 17.0533 245.664 16.84C245.704 16.8133 245.811 16.76 245.984 16.68C246.171 16.5867 246.324 16.54 246.444 16.54ZM242.964 10.48C242.191 10.48 241.571 10.7267 241.104 11.22C240.638 11.7133 240.358 12.4067 240.264 13.3H245.424C245.384 12.3933 245.151 11.7 244.724 11.22C244.311 10.7267 243.724 10.48 242.964 10.48ZM257.03 16.54C257.217 16.54 257.37 16.6133 257.49 16.76C257.61 16.9067 257.67 17.0933 257.67 17.32C257.67 17.7067 257.43 18.0333 256.95 18.3C256.484 18.5667 255.97 18.7733 255.41 18.92C254.864 19.0667 254.337 19.14 253.83 19.14C252.284 19.14 251.064 18.6933 250.17 17.8C249.277 16.8933 248.83 15.66 248.83 14.1C248.83 13.1 249.024 12.2133 249.41 11.44C249.81 10.6667 250.364 10.0667 251.07 9.64C251.79 9.21333 252.604 9 253.51 9C254.817 9 255.85 9.42 256.61 10.26C257.37 11.1 257.75 12.2333 257.75 13.66C257.75 14.1933 257.51 14.46 257.03 14.46H250.85C250.984 16.5267 251.977 17.56 253.83 17.56C254.324 17.56 254.75 17.4933 255.11 17.36C255.47 17.2267 255.85 17.0533 256.25 16.84C256.29 16.8133 256.397 16.76 256.57 16.68C256.757 16.5867 256.91 16.54 257.03 16.54ZM253.55 10.48C252.777 10.48 252.157 10.7267 251.69 11.22C251.224 11.7133 250.944 12.4067 250.85 13.3H256.01C255.97 12.3933 255.737 11.7 255.31 11.22C254.897 10.7267 254.31 10.48 253.55 10.48Z" fill="#415167"/>
</svg>
