<svg width="224" height="62" viewBox="0 0 224 62" fill="none" xmlns="http://www.w3.org/2000/svg">
<path d="M60.6 46.93H66.75V55.81C65.51 56.67 64.07 57.33 62.43 57.79C60.79 58.25 59.18 58.48 57.6 58.48C55.36 58.48 53.35 58.02 51.57 57.1C49.79 56.16 48.39 54.86 47.37 53.2C46.37 51.52 45.87 49.62 45.87 47.5C45.87 45.38 46.37 43.49 47.37 41.83C48.39 40.15 49.8 38.85 51.6 37.93C53.42 36.99 55.47 36.52 57.75 36.52C59.81 36.52 61.65 36.87 63.27 37.57C64.91 38.25 66.27 39.25 67.35 40.57L62.82 44.56C61.5 43.02 59.93 42.25 58.11 42.25C56.55 42.25 55.31 42.72 54.39 43.66C53.47 44.6 53.01 45.88 53.01 47.5C53.01 49.08 53.46 50.35 54.36 51.31C55.28 52.27 56.5 52.75 58.02 52.75C58.92 52.75 59.78 52.58 60.6 52.24V46.93ZM69.7666 37H76.8466V58H69.7666V37ZM87.3349 42.34V45.94H96.0949V51.28H87.3349V58H80.2549V37H97.3249V42.34H87.3349ZM104.268 42.49H98.118V37H117.498V42.49H111.348V58H104.268V42.49ZM127.167 58.48C125.427 58.48 123.727 58.29 122.067 57.91C120.427 57.51 119.077 56.98 118.017 56.32L120.297 51.16C121.297 51.74 122.417 52.21 123.657 52.57C124.897 52.91 126.087 53.08 127.227 53.08C128.207 53.08 128.907 52.99 129.327 52.81C129.747 52.61 129.957 52.32 129.957 51.94C129.957 51.5 129.677 51.17 129.117 50.95C128.577 50.73 127.677 50.49 126.417 50.23C124.797 49.89 123.447 49.53 122.367 49.15C121.287 48.75 120.347 48.11 119.547 47.23C118.747 46.33 118.347 45.12 118.347 43.6C118.347 42.28 118.717 41.08 119.457 40C120.197 38.92 121.297 38.07 122.757 37.45C124.237 36.83 126.027 36.52 128.127 36.52C129.567 36.52 130.977 36.68 132.357 37C133.757 37.3 134.987 37.75 136.047 38.35L133.917 43.48C131.857 42.44 129.907 41.92 128.067 41.92C126.247 41.92 125.337 42.36 125.337 43.24C125.337 43.66 125.607 43.98 126.147 44.2C126.687 44.4 127.577 44.62 128.817 44.86C130.417 45.16 131.767 45.51 132.867 45.91C133.967 46.29 134.917 46.92 135.717 47.8C136.537 48.68 136.947 49.88 136.947 51.4C136.947 52.72 136.577 53.92 135.837 55C135.097 56.06 133.987 56.91 132.507 57.55C131.047 58.17 129.267 58.48 127.167 58.48ZM156.514 52.66V58H139.054V37H156.124V42.34H146.014V44.8H154.894V49.9H146.014V52.66H156.514ZM163.799 42.49H157.649V37H177.029V42.49H170.879V58H163.799V42.49Z" fill="#415167"/>
<path d="M11.3951 11.74C12.2084 11.9667 12.8351 12.3733 13.2751 12.96C13.7284 13.5467 13.9551 14.28 13.9551 15.16C13.9551 16.3733 13.5351 17.32 12.6951 18C11.8684 18.6667 10.7084 19 9.21508 19H4.11508C3.79508 19 3.54174 18.9133 3.35508 18.74C3.18174 18.5533 3.09508 18.3067 3.09508 18V5.9C3.09508 5.59333 3.18174 5.35333 3.35508 5.18C3.54174 4.99333 3.79508 4.9 4.11508 4.9H8.99508C10.4484 4.9 11.5817 5.22667 12.3951 5.88C13.2217 6.52 13.6351 7.42 13.6351 8.58C13.6351 9.32667 13.4351 9.97333 13.0351 10.52C12.6484 11.0667 12.1017 11.4733 11.3951 11.74ZM5.11508 11H8.67508C10.6484 11 11.6351 10.2533 11.6351 8.76C11.6351 8.01333 11.3884 7.46 10.8951 7.1C10.4151 6.74 9.67508 6.56 8.67508 6.56H5.11508V11ZM8.99508 17.34C10.0217 17.34 10.7751 17.1533 11.2551 16.78C11.7351 16.4067 11.9751 15.8267 11.9751 15.04C11.9751 14.24 11.7284 13.6467 11.2351 13.26C10.7551 12.86 10.0084 12.66 8.99508 12.66H5.11508V17.34H8.99508ZM24.0498 16.54C24.2364 16.54 24.3898 16.6133 24.5098 16.76C24.6298 16.9067 24.6898 17.0933 24.6898 17.32C24.6898 17.7067 24.4498 18.0333 23.9698 18.3C23.5031 18.5667 22.9898 18.7733 22.4298 18.92C21.8831 19.0667 21.3564 19.14 20.8498 19.14C19.3031 19.14 18.0831 18.6933 17.1898 17.8C16.2964 16.8933 15.8498 15.66 15.8498 14.1C15.8498 13.1 16.0431 12.2133 16.4298 11.44C16.8298 10.6667 17.3831 10.0667 18.0898 9.64C18.8098 9.21333 19.6231 9 20.5298 9C21.8364 9 22.8698 9.42 23.6298 10.26C24.3898 11.1 24.7698 12.2333 24.7698 13.66C24.7698 14.1933 24.5298 14.46 24.0498 14.46H17.8698C18.0031 16.5267 18.9964 17.56 20.8498 17.56C21.3431 17.56 21.7698 17.4933 22.1298 17.36C22.4898 17.2267 22.8698 17.0533 23.2698 16.84C23.3098 16.8133 23.4164 16.76 23.5898 16.68C23.7764 16.5867 23.9298 16.54 24.0498 16.54ZM20.5698 10.48C19.7964 10.48 19.1764 10.7267 18.7098 11.22C18.2431 11.7133 17.9631 12.4067 17.8698 13.3H23.0298C22.9898 12.3933 22.7564 11.7 22.3298 11.22C21.9164 10.7267 21.3298 10.48 20.5698 10.48ZM30.3957 19.14C29.0357 19.14 27.9224 18.86 27.0557 18.3C26.8157 18.1533 26.6424 18 26.5357 17.84C26.4424 17.68 26.3957 17.5 26.3957 17.3C26.3957 17.0867 26.4557 16.9067 26.5757 16.76C26.6957 16.6133 26.849 16.54 27.0357 16.54C27.209 16.54 27.4824 16.6467 27.8557 16.86C28.2557 17.0733 28.6424 17.2467 29.0157 17.38C29.4024 17.5133 29.8824 17.58 30.4557 17.58C31.0957 17.58 31.5957 17.4667 31.9557 17.24C32.3157 17.0133 32.4957 16.6933 32.4957 16.28C32.4957 16.0133 32.4224 15.8 32.2757 15.64C32.1424 15.48 31.9024 15.34 31.5557 15.22C31.209 15.0867 30.6957 14.9467 30.0157 14.8C28.8424 14.5467 27.9957 14.2067 27.4757 13.78C26.969 13.34 26.7157 12.7467 26.7157 12C26.7157 11.4267 26.8824 10.9133 27.2157 10.46C27.549 9.99333 28.009 9.63333 28.5957 9.38C29.1824 9.12667 29.849 9 30.5957 9C31.129 9 31.649 9.07333 32.1557 9.22C32.6624 9.35333 33.109 9.55333 33.4957 9.82C33.9357 10.1133 34.1557 10.4533 34.1557 10.84C34.1557 11.0533 34.089 11.2333 33.9557 11.38C33.8357 11.5267 33.689 11.6 33.5157 11.6C33.3957 11.6 33.2757 11.5733 33.1557 11.52C33.0357 11.4667 32.8757 11.38 32.6757 11.26C32.3157 11.0467 31.9757 10.88 31.6557 10.76C31.349 10.64 30.9624 10.58 30.4957 10.58C29.9357 10.58 29.4824 10.7 29.1357 10.94C28.8024 11.18 28.6357 11.5067 28.6357 11.92C28.6357 12.2933 28.789 12.5867 29.0957 12.8C29.4157 13 30.009 13.1933 30.8757 13.38C31.769 13.5667 32.469 13.78 32.9757 14.02C33.4824 14.26 33.8424 14.56 34.0557 14.92C34.2824 15.2667 34.3957 15.7133 34.3957 16.26C34.3957 17.1267 34.029 17.8267 33.2957 18.36C32.5757 18.88 31.609 19.14 30.3957 19.14ZM41.3265 17.56C41.6198 17.5867 41.8265 17.6667 41.9465 17.8C42.0798 17.92 42.1465 18.0933 42.1465 18.32C42.1465 18.5867 42.0398 18.7933 41.8265 18.94C41.6265 19.0733 41.3265 19.1267 40.9265 19.1L40.3865 19.06C39.3065 18.98 38.4998 18.6533 37.9665 18.08C37.4332 17.4933 37.1665 16.6333 37.1665 15.5V10.8H35.9665C35.3798 10.8 35.0865 10.54 35.0865 10.02C35.0865 9.78 35.1598 9.59333 35.3065 9.46C35.4665 9.31333 35.6865 9.24 35.9665 9.24H37.1665V7.18C37.1665 6.87333 37.2532 6.63333 37.4265 6.46C37.6132 6.28667 37.8598 6.2 38.1665 6.2C38.4732 6.2 38.7198 6.28667 38.9065 6.46C39.0932 6.63333 39.1865 6.87333 39.1865 7.18V9.24H41.1665C41.4465 9.24 41.6598 9.31333 41.8065 9.46C41.9665 9.59333 42.0465 9.78 42.0465 10.02C42.0465 10.2733 41.9665 10.4667 41.8065 10.6C41.6598 10.7333 41.4465 10.8 41.1665 10.8H39.1865V15.64C39.1865 16.2667 39.3132 16.7267 39.5665 17.02C39.8332 17.3133 40.2332 17.48 40.7665 17.52L41.3265 17.56ZM59.7107 11.52C59.964 11.52 60.164 11.5933 60.3107 11.74C60.4707 11.8867 60.5507 12.0867 60.5507 12.34V17.02C60.5507 17.4733 60.484 17.8 60.3507 18C60.2307 18.2 59.984 18.36 59.6107 18.48C59.0774 18.6933 58.444 18.86 57.7107 18.98C56.9774 19.1 56.2507 19.16 55.5307 19.16C54.104 19.16 52.8707 18.8733 51.8307 18.3C50.7907 17.7267 49.9974 16.9 49.4507 15.82C48.904 14.74 48.6307 13.4467 48.6307 11.94C48.6307 10.46 48.904 9.18 49.4507 8.1C49.9974 7.02 50.7774 6.19333 51.7907 5.62C52.8174 5.03333 54.0174 4.74 55.3907 4.74C56.324 4.74 57.184 4.88 57.9707 5.16C58.7707 5.42667 59.4507 5.82 60.0107 6.34C60.2774 6.55333 60.4107 6.82 60.4107 7.14C60.4107 7.38 60.344 7.58667 60.2107 7.76C60.0774 7.92 59.9174 8 59.7307 8C59.6107 8 59.504 7.98 59.4107 7.94C59.3174 7.9 59.1974 7.83333 59.0507 7.74C58.3974 7.26 57.804 6.92667 57.2707 6.74C56.7374 6.54 56.124 6.44 55.4307 6.44C53.9107 6.44 52.7507 6.91333 51.9507 7.86C51.1507 8.79333 50.7507 10.1533 50.7507 11.94C50.7507 13.7667 51.1574 15.1533 51.9707 16.1C52.7974 17.0333 54.004 17.5 55.5907 17.5C56.6574 17.5 57.684 17.34 58.6707 17.02V13.08H56.0507C55.784 13.08 55.5707 13.0133 55.4107 12.88C55.264 12.7333 55.1907 12.54 55.1907 12.3C55.1907 12.06 55.264 11.8733 55.4107 11.74C55.5707 11.5933 55.784 11.52 56.0507 11.52H59.7107ZM64.4415 19.1C64.1482 19.1 63.9015 19.02 63.7015 18.86C63.5148 18.7 63.4215 18.46 63.4215 18.14V10.02C63.4215 9.7 63.5148 9.46 63.7015 9.3C63.9015 9.12667 64.1482 9.04 64.4415 9.04C64.7348 9.04 64.9748 9.12667 65.1615 9.3C65.3482 9.46 65.4415 9.7 65.4415 10.02V18.14C65.4415 18.46 65.3482 18.7 65.1615 18.86C64.9748 19.02 64.7348 19.1 64.4415 19.1ZM64.4415 7.08C64.0548 7.08 63.7482 6.97333 63.5215 6.76C63.2948 6.54667 63.1815 6.26667 63.1815 5.92C63.1815 5.57333 63.2948 5.3 63.5215 5.1C63.7482 4.88667 64.0548 4.78 64.4415 4.78C64.8148 4.78 65.1148 4.88667 65.3415 5.1C65.5815 5.3 65.7015 5.57333 65.7015 5.92C65.7015 6.26667 65.5882 6.54667 65.3615 6.76C65.1348 6.97333 64.8282 7.08 64.4415 7.08ZM72.8652 6.44C72.1986 6.49333 71.7052 6.70667 71.3852 7.08C71.0652 7.44 70.9052 7.97333 70.9052 8.68V9.24H72.8852C73.1652 9.24 73.3786 9.31333 73.5252 9.46C73.6852 9.59333 73.7652 9.78 73.7652 10.02C73.7652 10.26 73.6852 10.4533 73.5252 10.6C73.3786 10.7333 73.1652 10.8 72.8852 10.8H70.9052V18.12C70.9052 18.44 70.8052 18.6867 70.6052 18.86C70.4186 19.02 70.1786 19.1 69.8852 19.1C69.5919 19.1 69.3519 19.02 69.1652 18.86C68.9786 18.6867 68.8852 18.44 68.8852 18.12V10.8H67.6852C67.4052 10.8 67.1852 10.7333 67.0252 10.6C66.8786 10.4533 66.8052 10.26 66.8052 10.02C66.8052 9.78 66.8786 9.59333 67.0252 9.46C67.1852 9.31333 67.4052 9.24 67.6852 9.24H68.8852V8.98C68.8852 7.75333 69.1986 6.79333 69.8252 6.1C70.4519 5.39333 71.3386 5 72.4852 4.92L73.0052 4.88C73.4319 4.85333 73.7386 4.9 73.9252 5.02C74.1252 5.14 74.2252 5.33333 74.2252 5.6C74.2252 6.06667 73.9452 6.33333 73.3852 6.4L72.8652 6.44ZM79.3734 17.56C79.6667 17.5867 79.8734 17.6667 79.9934 17.8C80.1267 17.92 80.1934 18.0933 80.1934 18.32C80.1934 18.5867 80.0867 18.7933 79.8734 18.94C79.6734 19.0733 79.3734 19.1267 78.9734 19.1L78.4334 19.06C77.3534 18.98 76.5467 18.6533 76.0134 18.08C75.48 17.4933 75.2134 16.6333 75.2134 15.5V10.8H74.0134C73.4267 10.8 73.1334 10.54 73.1334 10.02C73.1334 9.78 73.2067 9.59333 73.3534 9.46C73.5134 9.31333 73.7334 9.24 74.0134 9.24H75.2134V7.18C75.2134 6.87333 75.3 6.63333 75.4734 6.46C75.66 6.28667 75.9067 6.2 76.2134 6.2C76.52 6.2 76.7667 6.28667 76.9534 6.46C77.14 6.63333 77.2334 6.87333 77.2334 7.18V9.24H79.2134C79.4934 9.24 79.7067 9.31333 79.8534 9.46C80.0134 9.59333 80.0934 9.78 80.0934 10.02C80.0934 10.2733 80.0134 10.4667 79.8534 10.6C79.7067 10.7333 79.4934 10.8 79.2134 10.8H77.2334V15.64C77.2334 16.2667 77.36 16.7267 77.6134 17.02C77.88 17.3133 78.28 17.48 78.8134 17.52L79.3734 17.56ZM88.1776 19.1C87.8709 19.1 87.6242 19.0067 87.4376 18.82C87.2509 18.62 87.1576 18.3667 87.1576 18.06V5.9C87.1576 5.59333 87.2442 5.35333 87.4176 5.18C87.6042 4.99333 87.8576 4.9 88.1776 4.9H95.3376C95.9776 4.9 96.2976 5.18 96.2976 5.74C96.2976 6.3 95.9776 6.58 95.3376 6.58H89.1976V11H94.9376C95.5776 11 95.8976 11.28 95.8976 11.84C95.8976 12.4 95.5776 12.68 94.9376 12.68H89.1976V18.06C89.1976 18.38 89.1042 18.6333 88.9176 18.82C88.7442 19.0067 88.4976 19.1 88.1776 19.1ZM102.173 19.14C101.213 19.14 100.367 18.9333 99.6332 18.52C98.9132 18.1067 98.3532 17.52 97.9532 16.76C97.5665 15.9867 97.3732 15.0933 97.3732 14.08C97.3732 13.0533 97.5665 12.16 97.9532 11.4C98.3532 10.6267 98.9132 10.0333 99.6332 9.62C100.367 9.20667 101.213 9 102.173 9C103.133 9 103.973 9.20667 104.693 9.62C105.427 10.0333 105.987 10.6267 106.373 11.4C106.773 12.16 106.973 13.0533 106.973 14.08C106.973 15.0933 106.773 15.9867 106.373 16.76C105.987 17.52 105.427 18.1067 104.693 18.52C103.973 18.9333 103.133 19.14 102.173 19.14ZM102.173 17.54C103.067 17.54 103.747 17.2467 104.213 16.66C104.693 16.0733 104.933 15.2133 104.933 14.08C104.933 12.96 104.693 12.1067 104.213 11.52C103.733 10.92 103.053 10.62 102.173 10.62C101.293 10.62 100.613 10.92 100.133 11.52C99.6532 12.1067 99.4132 12.96 99.4132 14.08C99.4132 15.2133 99.6465 16.0733 100.113 16.66C100.593 17.2467 101.28 17.54 102.173 17.54ZM114.342 9.04C114.982 9 115.302 9.27333 115.302 9.86C115.302 10.1533 115.229 10.3733 115.082 10.52C114.936 10.6667 114.682 10.7533 114.322 10.78L113.722 10.84C112.882 10.92 112.256 11.2133 111.842 11.72C111.442 12.2267 111.242 12.84 111.242 13.56V18.14C111.242 18.46 111.149 18.7 110.962 18.86C110.776 19.02 110.536 19.1 110.242 19.1C109.949 19.1 109.702 19.02 109.502 18.86C109.316 18.7 109.222 18.46 109.222 18.14V10C109.222 9.69333 109.316 9.46 109.502 9.3C109.702 9.12667 109.949 9.04 110.242 9.04C110.509 9.04 110.729 9.12667 110.902 9.3C111.089 9.46 111.182 9.68667 111.182 9.98V10.94C111.449 10.3533 111.836 9.90667 112.342 9.6C112.849 9.29333 113.422 9.11333 114.062 9.06L114.342 9.04ZM130.36 11.74C131.173 11.9667 131.8 12.3733 132.24 12.96C132.693 13.5467 132.92 14.28 132.92 15.16C132.92 16.3733 132.5 17.32 131.66 18C130.833 18.6667 129.673 19 128.18 19H123.08C122.76 19 122.507 18.9133 122.32 18.74C122.147 18.5533 122.06 18.3067 122.06 18V5.9C122.06 5.59333 122.147 5.35333 122.32 5.18C122.507 4.99333 122.76 4.9 123.08 4.9H127.96C129.413 4.9 130.547 5.22667 131.36 5.88C132.187 6.52 132.6 7.42 132.6 8.58C132.6 9.32667 132.4 9.97333 132 10.52C131.613 11.0667 131.067 11.4733 130.36 11.74ZM124.08 11H127.64C129.613 11 130.6 10.2533 130.6 8.76C130.6 8.01333 130.353 7.46 129.86 7.1C129.38 6.74 128.64 6.56 127.64 6.56H124.08V11ZM127.96 17.34C128.987 17.34 129.74 17.1533 130.22 16.78C130.7 16.4067 130.94 15.8267 130.94 15.04C130.94 14.24 130.693 13.6467 130.2 13.26C129.72 12.86 128.973 12.66 127.96 12.66H124.08V17.34H127.96ZM143.015 16.54C143.201 16.54 143.355 16.6133 143.475 16.76C143.595 16.9067 143.655 17.0933 143.655 17.32C143.655 17.7067 143.415 18.0333 142.935 18.3C142.468 18.5667 141.955 18.7733 141.395 18.92C140.848 19.0667 140.321 19.14 139.815 19.14C138.268 19.14 137.048 18.6933 136.155 17.8C135.261 16.8933 134.815 15.66 134.815 14.1C134.815 13.1 135.008 12.2133 135.395 11.44C135.795 10.6667 136.348 10.0667 137.055 9.64C137.775 9.21333 138.588 9 139.495 9C140.801 9 141.835 9.42 142.595 10.26C143.355 11.1 143.735 12.2333 143.735 13.66C143.735 14.1933 143.495 14.46 143.015 14.46H136.835C136.968 16.5267 137.961 17.56 139.815 17.56C140.308 17.56 140.735 17.4933 141.095 17.36C141.455 17.2267 141.835 17.0533 142.235 16.84C142.275 16.8133 142.381 16.76 142.555 16.68C142.741 16.5867 142.895 16.54 143.015 16.54ZM139.535 10.48C138.761 10.48 138.141 10.7267 137.675 11.22C137.208 11.7133 136.928 12.4067 136.835 13.3H141.995C141.955 12.3933 141.721 11.7 141.295 11.22C140.881 10.7267 140.295 10.48 139.535 10.48ZM149.361 19.14C148.001 19.14 146.887 18.86 146.021 18.3C145.781 18.1533 145.607 18 145.501 17.84C145.407 17.68 145.361 17.5 145.361 17.3C145.361 17.0867 145.421 16.9067 145.541 16.76C145.661 16.6133 145.814 16.54 146.001 16.54C146.174 16.54 146.447 16.6467 146.821 16.86C147.221 17.0733 147.607 17.2467 147.981 17.38C148.367 17.5133 148.847 17.58 149.421 17.58C150.061 17.58 150.561 17.4667 150.921 17.24C151.281 17.0133 151.461 16.6933 151.461 16.28C151.461 16.0133 151.387 15.8 151.241 15.64C151.107 15.48 150.867 15.34 150.521 15.22C150.174 15.0867 149.661 14.9467 148.981 14.8C147.807 14.5467 146.961 14.2067 146.441 13.78C145.934 13.34 145.681 12.7467 145.681 12C145.681 11.4267 145.847 10.9133 146.181 10.46C146.514 9.99333 146.974 9.63333 147.561 9.38C148.147 9.12667 148.814 9 149.561 9C150.094 9 150.614 9.07333 151.121 9.22C151.627 9.35333 152.074 9.55333 152.461 9.82C152.901 10.1133 153.121 10.4533 153.121 10.84C153.121 11.0533 153.054 11.2333 152.921 11.38C152.801 11.5267 152.654 11.6 152.481 11.6C152.361 11.6 152.241 11.5733 152.121 11.52C152.001 11.4667 151.841 11.38 151.641 11.26C151.281 11.0467 150.941 10.88 150.621 10.76C150.314 10.64 149.927 10.58 149.461 10.58C148.901 10.58 148.447 10.7 148.101 10.94C147.767 11.18 147.601 11.5067 147.601 11.92C147.601 12.2933 147.754 12.5867 148.061 12.8C148.381 13 148.974 13.1933 149.841 13.38C150.734 13.5667 151.434 13.78 151.941 14.02C152.447 14.26 152.807 14.56 153.021 14.92C153.247 15.2667 153.361 15.7133 153.361 16.26C153.361 17.1267 152.994 17.8267 152.261 18.36C151.541 18.88 150.574 19.14 149.361 19.14ZM160.291 17.56C160.585 17.5867 160.791 17.6667 160.911 17.8C161.045 17.92 161.111 18.0933 161.111 18.32C161.111 18.5867 161.005 18.7933 160.791 18.94C160.591 19.0733 160.291 19.1267 159.891 19.1L159.351 19.06C158.271 18.98 157.465 18.6533 156.931 18.08C156.398 17.4933 156.131 16.6333 156.131 15.5V10.8H154.931C154.345 10.8 154.051 10.54 154.051 10.02C154.051 9.78 154.125 9.59333 154.271 9.46C154.431 9.31333 154.651 9.24 154.931 9.24H156.131V7.18C156.131 6.87333 156.218 6.63333 156.391 6.46C156.578 6.28667 156.825 6.2 157.131 6.2C157.438 6.2 157.685 6.28667 157.871 6.46C158.058 6.63333 158.151 6.87333 158.151 7.18V9.24H160.131C160.411 9.24 160.625 9.31333 160.771 9.46C160.931 9.59333 161.011 9.78 161.011 10.02C161.011 10.2733 160.931 10.4667 160.771 10.6C160.625 10.7333 160.411 10.8 160.131 10.8H158.151V15.64C158.151 16.2667 158.278 16.7267 158.531 17.02C158.798 17.3133 159.198 17.48 159.731 17.52L160.291 17.56ZM169.096 19.1C168.789 19.1 168.542 19.0067 168.356 18.82C168.169 18.62 168.076 18.3667 168.076 18.06V5.9C168.076 5.59333 168.162 5.35333 168.336 5.18C168.522 4.99333 168.776 4.9 169.096 4.9H176.256C176.896 4.9 177.216 5.18 177.216 5.74C177.216 6.3 176.896 6.58 176.256 6.58H170.116V11H175.856C176.496 11 176.816 11.28 176.816 11.84C176.816 12.4 176.496 12.68 175.856 12.68H170.116V18.06C170.116 18.38 170.022 18.6333 169.836 18.82C169.662 19.0067 169.416 19.1 169.096 19.1ZM183.971 9.04C184.611 9 184.931 9.27333 184.931 9.86C184.931 10.1533 184.858 10.3733 184.711 10.52C184.565 10.6667 184.311 10.7533 183.951 10.78L183.351 10.84C182.511 10.92 181.885 11.2133 181.471 11.72C181.071 12.2267 180.871 12.84 180.871 13.56V18.14C180.871 18.46 180.778 18.7 180.591 18.86C180.405 19.02 180.165 19.1 179.871 19.1C179.578 19.1 179.331 19.02 179.131 18.86C178.945 18.7 178.851 18.46 178.851 18.14V10C178.851 9.69333 178.945 9.46 179.131 9.3C179.331 9.12667 179.578 9.04 179.871 9.04C180.138 9.04 180.358 9.12667 180.531 9.3C180.718 9.46 180.811 9.68667 180.811 9.98V10.94C181.078 10.3533 181.465 9.90667 181.971 9.6C182.478 9.29333 183.051 9.11333 183.691 9.06L183.971 9.04ZM187.195 19.1C186.902 19.1 186.655 19.02 186.455 18.86C186.269 18.7 186.175 18.46 186.175 18.14V10.02C186.175 9.7 186.269 9.46 186.455 9.3C186.655 9.12667 186.902 9.04 187.195 9.04C187.489 9.04 187.729 9.12667 187.915 9.3C188.102 9.46 188.195 9.7 188.195 10.02V18.14C188.195 18.46 188.102 18.7 187.915 18.86C187.729 19.02 187.489 19.1 187.195 19.1ZM187.195 7.08C186.809 7.08 186.502 6.97333 186.275 6.76C186.049 6.54667 185.935 6.26667 185.935 5.92C185.935 5.57333 186.049 5.3 186.275 5.1C186.502 4.88667 186.809 4.78 187.195 4.78C187.569 4.78 187.869 4.88667 188.095 5.1C188.335 5.3 188.455 5.57333 188.455 5.92C188.455 6.26667 188.342 6.54667 188.115 6.76C187.889 6.97333 187.582 7.08 187.195 7.08ZM198.659 16.54C198.846 16.54 198.999 16.6133 199.119 16.76C199.239 16.9067 199.299 17.0933 199.299 17.32C199.299 17.7067 199.059 18.0333 198.579 18.3C198.112 18.5667 197.599 18.7733 197.039 18.92C196.492 19.0667 195.966 19.14 195.459 19.14C193.912 19.14 192.692 18.6933 191.799 17.8C190.906 16.8933 190.459 15.66 190.459 14.1C190.459 13.1 190.652 12.2133 191.039 11.44C191.439 10.6667 191.992 10.0667 192.699 9.64C193.419 9.21333 194.232 9 195.139 9C196.446 9 197.479 9.42 198.239 10.26C198.999 11.1 199.379 12.2333 199.379 13.66C199.379 14.1933 199.139 14.46 198.659 14.46H192.479C192.612 16.5267 193.606 17.56 195.459 17.56C195.952 17.56 196.379 17.4933 196.739 17.36C197.099 17.2267 197.479 17.0533 197.879 16.84C197.919 16.8133 198.026 16.76 198.199 16.68C198.386 16.5867 198.539 16.54 198.659 16.54ZM195.179 10.48C194.406 10.48 193.786 10.7267 193.319 11.22C192.852 11.7133 192.572 12.4067 192.479 13.3H197.639C197.599 12.3933 197.366 11.7 196.939 11.22C196.526 10.7267 195.939 10.48 195.179 10.48ZM206.865 9C209.198 9 210.365 10.3133 210.365 12.94V18.14C210.365 18.4467 210.272 18.6867 210.085 18.86C209.912 19.02 209.665 19.1 209.345 19.1C209.038 19.1 208.792 19.0133 208.605 18.84C208.432 18.6667 208.345 18.4333 208.345 18.14V13.04C208.345 12.2133 208.178 11.6067 207.845 11.22C207.525 10.8333 207.018 10.64 206.325 10.64C205.512 10.64 204.858 10.8933 204.365 11.4C203.872 11.9067 203.625 12.5867 203.625 13.44V18.14C203.625 18.4333 203.532 18.6667 203.345 18.84C203.172 19.0133 202.932 19.1 202.625 19.1C202.318 19.1 202.072 19.0133 201.885 18.84C201.698 18.6667 201.605 18.4333 201.605 18.14V10C201.605 9.72 201.698 9.49333 201.885 9.32C202.085 9.13333 202.332 9.04 202.625 9.04C202.918 9.04 203.152 9.12667 203.325 9.3C203.498 9.47333 203.585 9.7 203.585 9.98V10.8C203.905 10.2133 204.352 9.76667 204.925 9.46C205.498 9.15333 206.145 9 206.865 9ZM221.109 4.8C221.415 4.8 221.662 4.88667 221.849 5.06C222.035 5.23333 222.129 5.46667 222.129 5.76V18.12C222.129 18.4267 222.035 18.6667 221.849 18.84C221.675 19.0133 221.435 19.1 221.129 19.1C220.822 19.1 220.575 19.0133 220.389 18.84C220.215 18.6667 220.129 18.4267 220.129 18.12V17.32C219.835 17.9067 219.409 18.36 218.849 18.68C218.289 18.9867 217.642 19.14 216.909 19.14C216.069 19.14 215.315 18.9267 214.649 18.5C213.995 18.0733 213.482 17.4733 213.109 16.7C212.749 15.9267 212.569 15.04 212.569 14.04C212.569 13.0267 212.749 12.14 213.109 11.38C213.482 10.62 213.995 10.0333 214.649 9.62C215.302 9.20667 216.055 9 216.909 9C217.642 9 218.282 9.16 218.829 9.48C219.389 9.78667 219.815 10.2267 220.109 10.8V5.72C220.109 5.44 220.195 5.22 220.369 5.06C220.555 4.88667 220.802 4.8 221.109 4.8ZM217.389 17.54C218.255 17.54 218.929 17.24 219.409 16.64C219.889 16.04 220.129 15.1867 220.129 14.08C220.129 12.9733 219.889 12.12 219.409 11.52C218.942 10.92 218.269 10.62 217.389 10.62C216.509 10.62 215.822 10.92 215.329 11.52C214.849 12.1067 214.609 12.9467 214.609 14.04C214.609 15.1333 214.855 15.9933 215.349 16.62C215.842 17.2333 216.522 17.54 217.389 17.54Z" fill="#415167"/>
</svg>
