<svg width="140" height="35" viewBox="0 0 140 35" fill="none" xmlns="http://www.w3.org/2000/svg">
<path d="M0.968 12C0.829333 12 0.706667 11.9573 0.6 11.872C0.504 11.7867 0.456 11.68 0.456 11.552V1.152C0.456 1.00267 0.498667 0.879999 0.584 0.783999C0.68 0.687999 0.802667 0.639999 0.952 0.639999C1.112 0.639999 1.23467 0.687999 1.32 0.783999C1.40533 0.869333 1.448 0.992 1.448 1.152V11.136H6.92C7.05867 11.136 7.16533 11.1733 7.24 11.248C7.32533 11.3227 7.368 11.4293 7.368 11.568C7.368 11.7067 7.32533 11.8133 7.24 11.888C7.16533 11.9627 7.05867 12 6.92 12H0.968ZM11.8993 12.112C11.1846 12.112 10.5553 11.9467 10.0113 11.616C9.47792 11.2853 9.06192 10.816 8.76325 10.208C8.46458 9.6 8.31525 8.89067 8.31525 8.08C8.31525 7.26933 8.46458 6.56 8.76325 5.952C9.06192 5.344 9.47792 4.87467 10.0113 4.544C10.5553 4.21333 11.1846 4.048 11.8993 4.048C12.6033 4.048 13.2273 4.21333 13.7713 4.544C14.3153 4.87467 14.7313 5.344 15.0193 5.952C15.3179 6.56 15.4673 7.26933 15.4673 8.08C15.4673 8.89067 15.3179 9.6 15.0193 10.208C14.7313 10.816 14.3153 11.2853 13.7713 11.616C13.2273 11.9467 12.6033 12.112 11.8993 12.112ZM11.8833 11.248C12.7046 11.248 13.3393 10.976 13.7873 10.432C14.2353 9.888 14.4593 9.104 14.4593 8.08C14.4593 7.07733 14.2299 6.29867 13.7713 5.744C13.3233 5.17867 12.6993 4.896 11.8993 4.896C11.0886 4.896 10.4593 5.17867 10.0113 5.744C9.56325 6.29867 9.33925 7.07733 9.33925 8.08C9.33925 9.104 9.55792 9.888 9.99525 10.432C10.4326 10.976 11.0619 11.248 11.8833 11.248ZM20.602 4.048C21.5407 4.048 22.2393 4.29333 22.698 4.784C23.1673 5.27467 23.402 6.016 23.402 7.008V11.568C23.402 11.7173 23.3593 11.84 23.274 11.936C23.1887 12.0213 23.0713 12.064 22.922 12.064C22.7727 12.064 22.6553 12.0213 22.57 11.936C22.4847 11.84 22.442 11.7173 22.442 11.568V10.608C22.218 11.088 21.8927 11.4613 21.466 11.728C21.0393 11.984 20.5487 12.112 19.994 12.112C19.4927 12.112 19.034 12.0107 18.618 11.808C18.202 11.6053 17.8713 11.3227 17.626 10.96C17.3913 10.5973 17.274 10.1973 17.274 9.76C17.274 9.184 17.4233 8.736 17.722 8.416C18.0207 8.096 18.5167 7.86667 19.21 7.728C19.9033 7.58933 20.8687 7.52 22.106 7.52H22.442V6.928C22.442 6.224 22.298 5.712 22.01 5.392C21.722 5.06133 21.2687 4.896 20.65 4.896C19.8607 4.896 19.1087 5.104 18.394 5.52C18.362 5.54133 18.2767 5.6 18.138 5.696C18.01 5.78133 17.898 5.824 17.802 5.824C17.6953 5.824 17.6047 5.78667 17.53 5.712C17.466 5.62667 17.434 5.52533 17.434 5.408C17.434 5.17333 17.6207 4.944 17.994 4.72C18.3673 4.50667 18.7833 4.34133 19.242 4.224C19.7007 4.10667 20.154 4.048 20.602 4.048ZM20.074 11.264C20.7673 11.264 21.3327 11.0293 21.77 10.56C22.218 10.0907 22.442 9.49333 22.442 8.768V8.24H22.138C21.114 8.24 20.33 8.28267 19.786 8.368C19.242 8.45333 18.858 8.60267 18.634 8.816C18.41 9.01867 18.298 9.31733 18.298 9.712C18.298 10.16 18.4687 10.5333 18.81 10.832C19.1513 11.12 19.5727 11.264 20.074 11.264ZM20.554 14.928C20.3513 14.928 20.1807 14.864 20.042 14.736C19.914 14.608 19.85 14.4373 19.85 14.224C19.85 14.0213 19.914 13.856 20.042 13.728C20.1807 13.6 20.3513 13.536 20.554 13.536C20.7567 13.536 20.922 13.6 21.05 13.728C21.1887 13.856 21.258 14.0213 21.258 14.224C21.258 14.4373 21.1887 14.608 21.05 14.736C20.922 14.864 20.7567 14.928 20.554 14.928ZM26.4479 12.08C26.2985 12.08 26.1759 12.0373 26.0799 11.952C25.9945 11.8667 25.9519 11.744 25.9519 11.584V4.576C25.9519 4.416 25.9945 4.29333 26.0799 4.208C26.1759 4.12267 26.2985 4.08 26.4479 4.08C26.5972 4.08 26.7145 4.12267 26.7999 4.208C26.8852 4.29333 26.9279 4.416 26.9279 4.576V11.584C26.9279 11.744 26.8852 11.8667 26.7999 11.952C26.7145 12.0373 26.5972 12.08 26.4479 12.08ZM26.4479 2.272C26.2345 2.272 26.0585 2.208 25.9199 2.08C25.7919 1.952 25.7279 1.78667 25.7279 1.584C25.7279 1.37067 25.7919 1.2 25.9199 1.072C26.0585 0.943999 26.2345 0.879999 26.4479 0.879999C26.6612 0.879999 26.8319 0.943999 26.9599 1.072C27.0985 1.2 27.1679 1.37067 27.1679 1.584C27.1679 1.78667 27.0985 1.952 26.9599 2.08C26.8319 2.208 26.6612 2.272 26.4479 2.272ZM37.162 4.048C39.0287 4.048 39.962 5.05067 39.962 7.056V11.584C39.962 11.7333 39.9193 11.856 39.834 11.952C39.7487 12.0373 39.6313 12.08 39.482 12.08C39.3327 12.08 39.21 12.0373 39.114 11.952C39.0287 11.856 38.986 11.7333 38.986 11.584V7.12C38.986 6.352 38.8313 5.792 38.522 5.44C38.2127 5.088 37.722 4.912 37.05 4.912C36.282 4.912 35.6633 5.14667 35.194 5.616C34.7353 6.08533 34.506 6.71467 34.506 7.504V11.584C34.506 11.7333 34.4633 11.856 34.378 11.952C34.2927 12.0373 34.1753 12.08 34.026 12.08C33.8767 12.08 33.754 12.0373 33.658 11.952C33.5727 11.856 33.53 11.7333 33.53 11.584V1.136C33.53 0.986666 33.5727 0.869333 33.658 0.783999C33.754 0.687999 33.8767 0.639999 34.026 0.639999C34.1753 0.639999 34.2927 0.687999 34.378 0.783999C34.4633 0.869333 34.506 0.986666 34.506 1.136V5.536C34.7513 5.056 35.1033 4.688 35.562 4.432C36.0313 4.176 36.5647 4.048 37.162 4.048ZM45.5708 4.048C46.5094 4.048 47.2081 4.29333 47.6668 4.784C48.1361 5.27467 48.3708 6.016 48.3708 7.008V11.568C48.3708 11.7173 48.3281 11.84 48.2428 11.936C48.1574 12.0213 48.0401 12.064 47.8908 12.064C47.7414 12.064 47.6241 12.0213 47.5388 11.936C47.4534 11.84 47.4108 11.7173 47.4108 11.568V10.608C47.1868 11.088 46.8614 11.4613 46.4348 11.728C46.0081 11.984 45.5174 12.112 44.9628 12.112C44.4614 12.112 44.0028 12.0107 43.5868 11.808C43.1708 11.6053 42.8401 11.3227 42.5948 10.96C42.3601 10.5973 42.2428 10.1973 42.2428 9.76C42.2428 9.184 42.3921 8.736 42.6908 8.416C42.9894 8.096 43.4854 7.86667 44.1788 7.728C44.8721 7.58933 45.8374 7.52 47.0748 7.52H47.4108V6.928C47.4108 6.224 47.2668 5.712 46.9788 5.392C46.6908 5.06133 46.2374 4.896 45.6188 4.896C44.8294 4.896 44.0774 5.104 43.3628 5.52C43.3308 5.54133 43.2454 5.6 43.1068 5.696C42.9788 5.78133 42.8668 5.824 42.7708 5.824C42.6641 5.824 42.5734 5.78667 42.4988 5.712C42.4348 5.62667 42.4028 5.52533 42.4028 5.408C42.4028 5.17333 42.5894 4.944 42.9628 4.72C43.3361 4.50667 43.7521 4.34133 44.2108 4.224C44.6694 4.10667 45.1228 4.048 45.5708 4.048ZM45.0428 11.264C45.7361 11.264 46.3014 11.0293 46.7388 10.56C47.1868 10.0907 47.4108 9.49333 47.4108 8.768V8.24H47.1068C46.0828 8.24 45.2988 8.28267 44.7548 8.368C44.2108 8.45333 43.8268 8.60267 43.6028 8.816C43.3788 9.01867 43.2668 9.31733 43.2668 9.712C43.2668 10.16 43.4374 10.5333 43.7788 10.832C44.1201 11.12 44.5414 11.264 45.0428 11.264ZM45.5228 14.928C45.3201 14.928 45.1494 14.864 45.0108 14.736C44.8828 14.608 44.8188 14.4373 44.8188 14.224C44.8188 14.0213 44.8828 13.856 45.0108 13.728C45.1494 13.6 45.3201 13.536 45.5228 13.536C45.7254 13.536 45.8908 13.6 46.0188 13.728C46.1574 13.856 46.2268 14.0213 46.2268 14.224C46.2268 14.4373 46.1574 14.608 46.0188 14.736C45.8908 14.864 45.7254 14.928 45.5228 14.928ZM54.2966 11.264C54.5953 11.296 54.7446 11.4347 54.7446 11.68C54.7446 11.808 54.6966 11.9093 54.6006 11.984C54.5046 12.0587 54.35 12.0907 54.1366 12.08L53.6886 12.048C52.878 11.9947 52.2753 11.7493 51.8806 11.312C51.4966 10.864 51.3046 10.1867 51.3046 9.28V5.024H50.0886C49.9606 5.024 49.8593 4.992 49.7846 4.928C49.71 4.85333 49.6726 4.75733 49.6726 4.64C49.6726 4.52267 49.71 4.42667 49.7846 4.352C49.8593 4.27733 49.9606 4.24 50.0886 4.24H51.3046V2.256C51.3046 2.096 51.3473 1.97333 51.4326 1.888C51.518 1.80267 51.6353 1.76 51.7846 1.76C51.934 1.76 52.0513 1.80267 52.1366 1.888C52.2326 1.97333 52.2806 2.096 52.2806 2.256V4.24H54.2166C54.3553 4.24 54.462 4.27733 54.5366 4.352C54.6113 4.42667 54.6486 4.52267 54.6486 4.64C54.6486 4.75733 54.6113 4.85333 54.5366 4.928C54.462 4.992 54.3553 5.024 54.2166 5.024H52.2806V9.328C52.2806 9.98933 52.4086 10.464 52.6646 10.752C52.9206 11.0293 53.3206 11.1893 53.8646 11.232L54.2966 11.264ZM1.128 34.08C0.882667 34.08 0.685333 34.0053 0.536 33.856C0.386667 33.696 0.312 33.4933 0.312 33.248V23.52C0.312 23.2747 0.381333 23.0827 0.52 22.944C0.669333 22.7947 0.872 22.72 1.128 22.72H6.856C7.368 22.72 7.624 22.944 7.624 23.392C7.624 23.84 7.368 24.064 6.856 24.064H1.944V27.6H6.536C7.048 27.6 7.304 27.824 7.304 28.272C7.304 28.72 7.048 28.944 6.536 28.944H1.944V33.248C1.944 33.504 1.86933 33.7067 1.72 33.856C1.58133 34.0053 1.384 34.08 1.128 34.08ZM9.90475 34.08C9.67008 34.08 9.47275 34.016 9.31275 33.888C9.16342 33.76 9.08875 33.568 9.08875 33.312V26.816C9.08875 26.56 9.16342 26.368 9.31275 26.24C9.47275 26.1013 9.67008 26.032 9.90475 26.032C10.1394 26.032 10.3314 26.1013 10.4808 26.24C10.6301 26.368 10.7048 26.56 10.7048 26.816V33.312C10.7048 33.568 10.6301 33.76 10.4808 33.888C10.3314 34.016 10.1394 34.08 9.90475 34.08ZM9.90475 24.464C9.59542 24.464 9.35008 24.3787 9.16875 24.208C8.98742 24.0373 8.89675 23.8133 8.89675 23.536C8.89675 23.2587 8.98742 23.04 9.16875 22.88C9.35008 22.7093 9.59542 22.624 9.90475 22.624C10.2034 22.624 10.4434 22.7093 10.6248 22.88C10.8168 23.04 10.9128 23.2587 10.9128 23.536C10.9128 23.8133 10.8221 24.0373 10.6408 24.208C10.4594 24.3787 10.2141 24.464 9.90475 24.464ZM17.1718 26C19.0384 26 19.9718 27.0507 19.9718 29.152V33.312C19.9718 33.5573 19.8971 33.7493 19.7478 33.888C19.6091 34.016 19.4118 34.08 19.1558 34.08C18.9104 34.08 18.7131 34.0107 18.5638 33.872C18.4251 33.7333 18.3558 33.5467 18.3558 33.312V29.232C18.3558 28.5707 18.2224 28.0853 17.9558 27.776C17.6998 27.4667 17.2944 27.312 16.7398 27.312C16.0891 27.312 15.5664 27.5147 15.1718 27.92C14.7771 28.3253 14.5798 28.8693 14.5798 29.552V33.312C14.5798 33.5467 14.5051 33.7333 14.3558 33.872C14.2171 34.0107 14.0251 34.08 13.7798 34.08C13.5344 34.08 13.3371 34.0107 13.1878 33.872C13.0384 33.7333 12.9638 33.5467 12.9638 33.312V26.8C12.9638 26.576 13.0384 26.3947 13.1878 26.256C13.3478 26.1067 13.5451 26.032 13.7798 26.032C14.0144 26.032 14.2011 26.1013 14.3398 26.24C14.4784 26.3787 14.5478 26.56 14.5478 26.784V27.44C14.8038 26.9707 15.1611 26.6133 15.6198 26.368C16.0784 26.1227 16.5958 26 17.1718 26ZM28.2945 32.032C28.4438 32.032 28.5665 32.0907 28.6625 32.208C28.7585 32.3253 28.8065 32.4747 28.8065 32.656C28.8065 32.9653 28.6145 33.2267 28.2305 33.44C27.8572 33.6533 27.4465 33.8187 26.9985 33.936C26.5612 34.0533 26.1398 34.112 25.7345 34.112C24.4972 34.112 23.5212 33.7547 22.8065 33.04C22.0918 32.3147 21.7345 31.328 21.7345 30.08C21.7345 29.28 21.8892 28.5707 22.1985 27.952C22.5185 27.3333 22.9612 26.8533 23.5265 26.512C24.1025 26.1707 24.7532 26 25.4785 26C26.5238 26 27.3505 26.336 27.9585 27.008C28.5665 27.68 28.8705 28.5867 28.8705 29.728C28.8705 30.1547 28.6785 30.368 28.2945 30.368H23.3505C23.4572 32.0213 24.2518 32.848 25.7345 32.848C26.1292 32.848 26.4705 32.7947 26.7585 32.688C27.0465 32.5813 27.3505 32.4427 27.6705 32.272C27.7025 32.2507 27.7878 32.208 27.9265 32.144C28.0758 32.0693 28.1985 32.032 28.2945 32.032ZM25.5105 27.184C24.8918 27.184 24.3958 27.3813 24.0225 27.776C23.6492 28.1707 23.4252 28.7253 23.3505 29.44H27.4785C27.4465 28.7147 27.2598 28.16 26.9185 27.776C26.5878 27.3813 26.1185 27.184 25.5105 27.184ZM43.862 32.976C43.958 33.1147 44.006 33.264 44.006 33.424C44.006 33.616 43.926 33.7813 43.766 33.92C43.6167 34.048 43.4407 34.112 43.238 34.112C42.9393 34.112 42.6993 33.9787 42.518 33.712L40.374 30.384C40.1287 30 39.8673 29.7333 39.59 29.584C39.3127 29.424 38.95 29.344 38.502 29.344H36.694V33.248C36.694 33.504 36.6193 33.7067 36.47 33.856C36.3313 34.0053 36.134 34.08 35.878 34.08C35.6327 34.08 35.4353 34.0053 35.286 33.856C35.1367 33.7067 35.062 33.504 35.062 33.248V23.52C35.062 23.2747 35.1313 23.0827 35.27 22.944C35.4193 22.7947 35.622 22.72 35.878 22.72H39.862C41.11 22.72 42.0593 22.9973 42.71 23.552C43.3713 24.1067 43.702 24.9173 43.702 25.984C43.702 26.8693 43.4513 27.5893 42.95 28.144C42.4487 28.688 41.734 29.0347 40.806 29.184C41.0833 29.2587 41.334 29.392 41.558 29.584C41.782 29.776 42.0007 30.0427 42.214 30.384L43.862 32.976ZM39.67 28.016C40.502 28.016 41.1153 27.856 41.51 27.536C41.9153 27.2053 42.118 26.6987 42.118 26.016C42.118 25.3333 41.9207 24.8373 41.526 24.528C41.1313 24.208 40.5127 24.048 39.67 24.048H36.678V28.016H39.67ZM49.3089 34.112C48.5409 34.112 47.8635 33.9467 47.2769 33.616C46.7009 33.2853 46.2529 32.816 45.9329 32.208C45.6235 31.5893 45.4689 30.8747 45.4689 30.064C45.4689 29.2427 45.6235 28.528 45.9329 27.92C46.2529 27.3013 46.7009 26.8267 47.2769 26.496C47.8635 26.1653 48.5409 26 49.3089 26C50.0769 26 50.7489 26.1653 51.3249 26.496C51.9115 26.8267 52.3595 27.3013 52.6689 27.92C52.9889 28.528 53.1489 29.2427 53.1489 30.064C53.1489 30.8747 52.9889 31.5893 52.6689 32.208C52.3595 32.816 51.9115 33.2853 51.3249 33.616C50.7489 33.9467 50.0769 34.112 49.3089 34.112ZM49.3089 32.832C50.0235 32.832 50.5675 32.5973 50.9409 32.128C51.3249 31.6587 51.5169 30.9707 51.5169 30.064C51.5169 29.168 51.3249 28.4853 50.9409 28.016C50.5569 27.536 50.0129 27.296 49.3089 27.296C48.6049 27.296 48.0609 27.536 47.6769 28.016C47.2929 28.4853 47.1009 29.168 47.1009 30.064C47.1009 30.9707 47.2875 31.6587 47.6609 32.128C48.0449 32.5973 48.5942 32.832 49.3089 32.832ZM59.1401 26C59.8228 26 60.4255 26.1653 60.9481 26.496C61.4708 26.8267 61.8761 27.296 62.1641 27.904C62.4628 28.512 62.6121 29.2213 62.6121 30.032C62.6121 30.832 62.4628 31.5413 62.1641 32.16C61.8761 32.7787 61.4655 33.2587 60.9321 33.6C60.4095 33.9413 59.8121 34.112 59.1401 34.112C58.5535 34.112 58.0361 33.9893 57.5881 33.744C57.1401 33.488 56.7988 33.1253 56.5641 32.656V33.296C56.5641 33.5307 56.4895 33.7227 56.3401 33.872C56.2015 34.0107 56.0095 34.08 55.7641 34.08C55.5188 34.08 55.3215 34.0107 55.1721 33.872C55.0228 33.7227 54.9481 33.5307 54.9481 33.296V23.408C54.9481 23.1733 55.0228 22.9867 55.1721 22.848C55.3321 22.7093 55.5348 22.64 55.7801 22.64C56.0148 22.64 56.2015 22.7093 56.3401 22.848C56.4895 22.976 56.5641 23.152 56.5641 23.376V27.472C56.7988 27.0027 57.1401 26.64 57.5881 26.384C58.0361 26.128 58.5535 26 59.1401 26ZM58.7561 32.832C59.4495 32.832 59.9881 32.5867 60.3721 32.096C60.7668 31.6053 60.9641 30.9173 60.9641 30.032C60.9641 29.1573 60.7721 28.4853 60.3881 28.016C60.0041 27.536 59.4601 27.296 58.7561 27.296C58.0521 27.296 57.5081 27.536 57.1241 28.016C56.7508 28.496 56.5641 29.1787 56.5641 30.064C56.5641 30.9493 56.7508 31.632 57.1241 32.112C57.5081 32.592 58.0521 32.832 58.7561 32.832ZM70.4493 26.032C70.6946 26.032 70.8866 26.1013 71.0253 26.24C71.1746 26.3787 71.2493 26.5707 71.2493 26.816V33.328C71.2493 33.552 71.1746 33.7333 71.0253 33.872C70.8759 34.0107 70.6786 34.08 70.4333 34.08C70.2093 34.08 70.0279 34.016 69.8893 33.888C69.7506 33.7493 69.6813 33.568 69.6813 33.344V32.736C69.4359 33.184 69.0946 33.5253 68.6573 33.76C68.2306 33.9947 67.7506 34.112 67.2173 34.112C65.3186 34.112 64.3693 33.0667 64.3693 30.976V26.816C64.3693 26.5707 64.4386 26.3787 64.5773 26.24C64.7266 26.1013 64.9293 26.032 65.1853 26.032C65.4306 26.032 65.6226 26.1013 65.7613 26.24C65.9106 26.3787 65.9853 26.5707 65.9853 26.816V30.96C65.9853 31.5893 66.1133 32.0533 66.3693 32.352C66.6253 32.6507 67.0199 32.8 67.5533 32.8C68.1826 32.8 68.6839 32.5973 69.0573 32.192C69.4413 31.7867 69.6333 31.248 69.6333 30.576V26.816C69.6333 26.5813 69.7079 26.3947 69.8573 26.256C70.0066 26.1067 70.2039 26.032 70.4493 26.032ZM76.2306 34.112C75.1426 34.112 74.252 33.888 73.5586 33.44C73.3666 33.3227 73.228 33.2 73.1426 33.072C73.068 32.944 73.0306 32.8 73.0306 32.64C73.0306 32.4693 73.0786 32.3253 73.1746 32.208C73.2706 32.0907 73.3933 32.032 73.5426 32.032C73.6813 32.032 73.9 32.1173 74.1986 32.288C74.5186 32.4587 74.828 32.5973 75.1266 32.704C75.436 32.8107 75.82 32.864 76.2786 32.864C76.7906 32.864 77.1906 32.7733 77.4786 32.592C77.7666 32.4107 77.9106 32.1547 77.9106 31.824C77.9106 31.6107 77.852 31.44 77.7346 31.312C77.628 31.184 77.436 31.072 77.1586 30.976C76.8813 30.8693 76.4706 30.7573 75.9266 30.64C74.988 30.4373 74.3106 30.1653 73.8946 29.824C73.4893 29.472 73.2866 28.9973 73.2866 28.4C73.2866 27.9413 73.42 27.5307 73.6866 27.168C73.9533 26.7947 74.3213 26.5067 74.7906 26.304C75.26 26.1013 75.7933 26 76.3906 26C76.8173 26 77.2333 26.0587 77.6386 26.176C78.044 26.2827 78.4013 26.4427 78.7106 26.656C79.0626 26.8907 79.2386 27.1627 79.2386 27.472C79.2386 27.6427 79.1853 27.7867 79.0786 27.904C78.9826 28.0213 78.8653 28.08 78.7266 28.08C78.6306 28.08 78.5346 28.0587 78.4386 28.016C78.3426 27.9733 78.2146 27.904 78.0546 27.808C77.7666 27.6373 77.4946 27.504 77.2386 27.408C76.9933 27.312 76.684 27.264 76.3106 27.264C75.8626 27.264 75.5 27.36 75.2226 27.552C74.956 27.744 74.8226 28.0053 74.8226 28.336C74.8226 28.6347 74.9453 28.8693 75.1906 29.04C75.4466 29.2 75.9213 29.3547 76.6146 29.504C77.3293 29.6533 77.8893 29.824 78.2946 30.016C78.7 30.208 78.988 30.448 79.1586 30.736C79.34 31.0133 79.4306 31.3707 79.4306 31.808C79.4306 32.5013 79.1373 33.0613 78.5506 33.488C77.9746 33.904 77.2013 34.112 76.2306 34.112ZM84.9753 32.848C85.2099 32.8693 85.3753 32.9333 85.4713 33.04C85.5779 33.136 85.6313 33.2747 85.6313 33.456C85.6313 33.6693 85.5459 33.8347 85.3753 33.952C85.2153 34.0587 84.9753 34.1013 84.6553 34.08L84.2233 34.048C83.3593 33.984 82.7139 33.7227 82.2873 33.264C81.8606 32.7947 81.6473 32.1067 81.6473 31.2V27.44H80.6873C80.2179 27.44 79.9832 27.232 79.9832 26.816C79.9832 26.624 80.0419 26.4747 80.1593 26.368C80.2873 26.2507 80.4633 26.192 80.6873 26.192H81.6473V24.544C81.6473 24.2987 81.7166 24.1067 81.8553 23.968C82.0046 23.8293 82.2019 23.76 82.4473 23.76C82.6926 23.76 82.8899 23.8293 83.0393 23.968C83.1886 24.1067 83.2633 24.2987 83.2633 24.544V26.192H84.8473C85.0713 26.192 85.2419 26.2507 85.3593 26.368C85.4873 26.4747 85.5513 26.624 85.5513 26.816C85.5513 27.0187 85.4873 27.1733 85.3593 27.28C85.2419 27.3867 85.0713 27.44 84.8473 27.44H83.2633V31.312C83.2633 31.8133 83.3646 32.1813 83.5673 32.416C83.7806 32.6507 84.1006 32.784 84.5273 32.816L84.9753 32.848ZM90.0719 26C91.1065 26 91.8745 26.2613 92.3759 26.784C92.8879 27.3067 93.1439 28.1013 93.1439 29.168V33.312C93.1439 33.5573 93.0745 33.7493 92.9359 33.888C92.7972 34.016 92.6052 34.08 92.3599 34.08C92.1252 34.08 91.9385 34.0107 91.7999 33.872C91.6612 33.7333 91.5919 33.5467 91.5919 33.312V32.72C91.3892 33.168 91.0852 33.5147 90.6799 33.76C90.2852 33.9947 89.8212 34.112 89.2879 34.112C88.7759 34.112 88.3065 34.0107 87.8799 33.808C87.4532 33.5947 87.1172 33.3013 86.8719 32.928C86.6372 32.5547 86.5199 32.1387 86.5199 31.68C86.5199 31.1147 86.6639 30.672 86.9519 30.352C87.2505 30.0213 87.7359 29.7867 88.4079 29.648C89.0905 29.5093 90.0239 29.44 91.2079 29.44H91.5759V28.976C91.5759 28.3787 91.4532 27.9467 91.2079 27.68C90.9625 27.4133 90.5679 27.28 90.0239 27.28C89.6505 27.28 89.2985 27.328 88.9679 27.424C88.6372 27.52 88.2745 27.6587 87.8799 27.84C87.5919 28 87.3892 28.08 87.2719 28.08C87.1119 28.08 86.9785 28.0213 86.8719 27.904C86.7759 27.7867 86.7279 27.6373 86.7279 27.456C86.7279 27.296 86.7705 27.1573 86.8559 27.04C86.9519 26.912 87.1012 26.7893 87.3039 26.672C87.6772 26.4693 88.1145 26.3093 88.6159 26.192C89.1172 26.064 89.6025 26 90.0719 26ZM89.5759 32.912C90.1625 32.912 90.6425 32.7147 91.0159 32.32C91.3892 31.9147 91.5759 31.3973 91.5759 30.768V30.352H91.2879C90.4559 30.352 89.8159 30.3893 89.3679 30.464C88.9199 30.5387 88.5999 30.6667 88.4079 30.848C88.2159 31.0187 88.1199 31.2693 88.1199 31.6C88.1199 31.984 88.2585 32.2987 88.5359 32.544C88.8132 32.7893 89.1599 32.912 89.5759 32.912ZM106.405 28.192C107.056 28.3733 107.557 28.6987 107.909 29.168C108.272 29.6373 108.453 30.224 108.453 30.928C108.453 31.8987 108.117 32.656 107.445 33.2C106.784 33.7333 105.856 34 104.661 34H100.581C100.325 34 100.122 33.9307 99.9731 33.792C99.8345 33.6427 99.7651 33.4453 99.7651 33.2V23.52C99.7651 23.2747 99.8345 23.0827 99.9731 22.944C100.122 22.7947 100.325 22.72 100.581 22.72H104.485C105.648 22.72 106.554 22.9813 107.205 23.504C107.866 24.016 108.197 24.736 108.197 25.664C108.197 26.2613 108.037 26.7787 107.717 27.216C107.408 27.6533 106.97 27.9787 106.405 28.192ZM101.381 27.6H104.229C105.808 27.6 106.597 27.0027 106.597 25.808C106.597 25.2107 106.4 24.768 106.005 24.48C105.621 24.192 105.029 24.048 104.229 24.048H101.381V27.6ZM104.485 32.672C105.306 32.672 105.909 32.5227 106.293 32.224C106.677 31.9253 106.869 31.4613 106.869 30.832C106.869 30.192 106.672 29.7173 106.277 29.408C105.893 29.088 105.296 28.928 104.485 28.928H101.381V32.672H104.485ZM111.233 34.08C110.998 34.08 110.801 34.016 110.641 33.888C110.492 33.76 110.417 33.568 110.417 33.312V23.424C110.417 23.168 110.492 22.976 110.641 22.848C110.801 22.7093 110.998 22.64 111.233 22.64C111.468 22.64 111.66 22.7093 111.809 22.848C111.958 22.976 112.033 23.168 112.033 23.424V33.312C112.033 33.568 111.958 33.76 111.809 33.888C111.66 34.016 111.468 34.08 111.233 34.08ZM120.404 32.032C120.553 32.032 120.676 32.0907 120.772 32.208C120.868 32.3253 120.916 32.4747 120.916 32.656C120.916 32.9653 120.724 33.2267 120.34 33.44C119.967 33.6533 119.556 33.8187 119.108 33.936C118.671 34.0533 118.249 34.112 117.844 34.112C116.607 34.112 115.631 33.7547 114.916 33.04C114.201 32.3147 113.844 31.328 113.844 30.08C113.844 29.28 113.999 28.5707 114.308 27.952C114.628 27.3333 115.071 26.8533 115.636 26.512C116.212 26.1707 116.863 26 117.588 26C118.633 26 119.46 26.336 120.068 27.008C120.676 27.68 120.98 28.5867 120.98 29.728C120.98 30.1547 120.788 30.368 120.404 30.368H115.46C115.567 32.0213 116.361 32.848 117.844 32.848C118.239 32.848 118.58 32.7947 118.868 32.688C119.156 32.5813 119.46 32.4427 119.78 32.272C119.812 32.2507 119.897 32.208 120.036 32.144C120.185 32.0693 120.308 32.032 120.404 32.032ZM117.62 27.184C117.001 27.184 116.505 27.3813 116.132 27.776C115.759 28.1707 115.535 28.7253 115.46 29.44H119.588C119.556 28.7147 119.369 28.16 119.028 27.776C118.697 27.3813 118.228 27.184 117.62 27.184ZM126.969 26C128.835 26 129.769 27.0507 129.769 29.152V33.312C129.769 33.5573 129.694 33.7493 129.545 33.888C129.406 34.016 129.209 34.08 128.953 34.08C128.707 34.08 128.51 34.0107 128.361 33.872C128.222 33.7333 128.153 33.5467 128.153 33.312V29.232C128.153 28.5707 128.019 28.0853 127.753 27.776C127.497 27.4667 127.091 27.312 126.537 27.312C125.886 27.312 125.363 27.5147 124.969 27.92C124.574 28.3253 124.377 28.8693 124.377 29.552V33.312C124.377 33.5467 124.302 33.7333 124.153 33.872C124.014 34.0107 123.822 34.08 123.577 34.08C123.331 34.08 123.134 34.0107 122.985 33.872C122.835 33.7333 122.761 33.5467 122.761 33.312V26.8C122.761 26.576 122.835 26.3947 122.985 26.256C123.145 26.1067 123.342 26.032 123.577 26.032C123.811 26.032 123.998 26.1013 124.137 26.24C124.275 26.3787 124.345 26.56 124.345 26.784V27.44C124.601 26.9707 124.958 26.6133 125.417 26.368C125.875 26.1227 126.393 26 126.969 26ZM138.363 22.64C138.609 22.64 138.806 22.7093 138.955 22.848C139.105 22.9867 139.179 23.1733 139.179 23.408V33.296C139.179 33.5413 139.105 33.7333 138.955 33.872C138.817 34.0107 138.625 34.08 138.379 34.08C138.134 34.08 137.937 34.0107 137.787 33.872C137.649 33.7333 137.579 33.5413 137.579 33.296V32.656C137.345 33.1253 137.003 33.488 136.555 33.744C136.107 33.9893 135.59 34.112 135.003 34.112C134.331 34.112 133.729 33.9413 133.195 33.6C132.673 33.2587 132.262 32.7787 131.963 32.16C131.675 31.5413 131.531 30.832 131.531 30.032C131.531 29.2213 131.675 28.512 131.963 27.904C132.262 27.296 132.673 26.8267 133.195 26.496C133.718 26.1653 134.321 26 135.003 26C135.59 26 136.102 26.128 136.539 26.384C136.987 26.6293 137.329 26.9813 137.563 27.44V23.376C137.563 23.152 137.633 22.976 137.771 22.848C137.921 22.7093 138.118 22.64 138.363 22.64ZM135.387 32.832C136.081 32.832 136.619 32.592 137.003 32.112C137.387 31.632 137.579 30.9493 137.579 30.064C137.579 29.1787 137.387 28.496 137.003 28.016C136.63 27.536 136.091 27.296 135.387 27.296C134.683 27.296 134.134 27.536 133.739 28.016C133.355 28.4853 133.163 29.1573 133.163 30.032C133.163 30.9067 133.361 31.5947 133.755 32.096C134.15 32.5867 134.694 32.832 135.387 32.832Z" fill="#415167"/>
</svg>
