<svg width="448" height="64" viewBox="0 0 448 64" fill="none" xmlns="http://www.w3.org/2000/svg">
<path d="M12.57 57.2022C10.35 57.2022 8.35 56.7422 6.57 55.8222C4.79 54.8822 3.39 53.5822 2.37 51.9222C1.37 50.2422 0.87 48.3422 0.87 46.2222C0.87 44.1022 1.37 42.2122 2.37 40.5522C3.39 38.8722 4.79 37.5722 6.57 36.6522C8.35 35.7122 10.35 35.2422 12.57 35.2422C14.61 35.2422 16.43 35.6022 18.03 36.3222C19.63 37.0422 20.95 38.0822 21.99 39.4422L17.52 43.4322C16.22 41.7922 14.69 40.9722 12.93 40.9722C11.45 40.9722 10.26 41.4522 9.36 42.4122C8.46 43.3522 8.01 44.6222 8.01 46.2222C8.01 47.8222 8.46 49.1022 9.36 50.0622C10.26 51.0022 11.45 51.4722 12.93 51.4722C14.69 51.4722 16.22 50.6522 17.52 49.0122L21.99 53.0022C20.95 54.3622 19.63 55.4022 18.03 56.1222C16.43 56.8422 14.61 57.2022 12.57 57.2022ZM34.6048 57.2022C32.3448 57.2022 30.3148 56.7322 28.5148 55.7922C26.7148 54.8522 25.3048 53.5522 24.2848 51.8922C23.2648 50.2122 22.7548 48.3222 22.7548 46.2222C22.7548 44.1222 23.2648 42.2422 24.2848 40.5822C25.3048 38.9022 26.7148 37.5922 28.5148 36.6522C30.3148 35.7122 32.3448 35.2422 34.6048 35.2422C36.8648 35.2422 38.8948 35.7122 40.6948 36.6522C42.4948 37.5922 43.9048 38.9022 44.9248 40.5822C45.9448 42.2422 46.4548 44.1222 46.4548 46.2222C46.4548 48.3222 45.9448 50.2122 44.9248 51.8922C43.9048 53.5522 42.4948 54.8522 40.6948 55.7922C38.8948 56.7322 36.8648 57.2022 34.6048 57.2022ZM34.6048 51.4722C35.4848 51.4722 36.2748 51.2622 36.9748 50.8422C37.6948 50.4022 38.2648 49.7922 38.6848 49.0122C39.1048 48.2122 39.3148 47.2822 39.3148 46.2222C39.3148 45.1622 39.1048 44.2422 38.6848 43.4622C38.2648 42.6622 37.6948 42.0522 36.9748 41.6322C36.2748 41.1922 35.4848 40.9722 34.6048 40.9722C33.7248 40.9722 32.9248 41.1922 32.2048 41.6322C31.5048 42.0522 30.9448 42.6622 30.5248 43.4622C30.1048 44.2422 29.8948 45.1622 29.8948 46.2222C29.8948 47.2822 30.1048 48.2122 30.5248 49.0122C30.9448 49.7922 31.5048 50.4022 32.2048 50.8422C32.9248 51.2622 33.7248 51.4722 34.6048 51.4722ZM56.1045 41.0622V44.6622H64.8645V50.0022H56.1045V56.7222H49.0245V35.7222H66.0945V41.0622H56.1045ZM75.4111 41.0622V44.6622H84.1711V50.0022H75.4111V56.7222H68.3311V35.7222H85.4011V41.0622H75.4111ZM105.098 51.3822V56.7222H87.6377V35.7222H104.708V41.0622H94.5977V43.5222H103.478V48.6222H94.5977V51.3822H105.098ZM125.283 51.3822V56.7222H107.823V35.7222H124.893V41.0622H114.783V43.5222H123.663V48.6222H114.783V51.3822H125.283ZM153.803 45.7422C155.043 46.2022 156.003 46.8722 156.683 47.7522C157.363 48.6322 157.703 49.6922 157.703 50.9322C157.703 52.7722 156.943 54.2022 155.423 55.2222C153.903 56.2222 151.703 56.7222 148.823 56.7222H137.003V35.7222H148.223C151.023 35.7222 153.133 36.2222 154.553 37.2222C155.993 38.2222 156.713 39.5522 156.713 41.2122C156.713 42.1922 156.463 43.0722 155.963 43.8522C155.483 44.6322 154.763 45.2622 153.803 45.7422ZM143.963 40.6722V43.7922H147.263C148.803 43.7922 149.573 43.2722 149.573 42.2322C149.573 41.1922 148.803 40.6722 147.263 40.6722H143.963ZM148.223 51.7722C149.783 51.7722 150.563 51.2222 150.563 50.1222C150.563 49.0222 149.783 48.4722 148.223 48.4722H143.963V51.7722H148.223ZM170.256 57.2022C167.036 57.2022 164.526 56.3322 162.726 54.5922C160.926 52.8522 160.026 50.4122 160.026 47.2722V35.7222H167.106V47.0622C167.106 48.6022 167.376 49.7222 167.916 50.4222C168.476 51.1222 169.276 51.4722 170.316 51.4722C171.356 51.4722 172.146 51.1222 172.686 50.4222C173.246 49.7222 173.526 48.6022 173.526 47.0622V35.7222H180.486V47.2722C180.486 50.4122 179.586 52.8522 177.786 54.5922C175.986 56.3322 173.476 57.2022 170.256 57.2022ZM183.731 35.7222H190.811V56.7222H183.731V35.7222ZM194.22 35.7222H201.3V51.2322H210.78V56.7222H194.22V35.7222ZM212.735 35.7222H223.085C225.425 35.7222 227.485 36.1522 229.265 37.0122C231.065 37.8522 232.455 39.0622 233.435 40.6422C234.435 42.2222 234.935 44.0822 234.935 46.2222C234.935 48.3622 234.435 50.2222 233.435 51.8022C232.455 53.3822 231.065 54.6022 229.265 55.4622C227.485 56.3022 225.425 56.7222 223.085 56.7222H212.735V35.7222ZM222.785 51.2022C224.305 51.2022 225.515 50.7722 226.415 49.9122C227.335 49.0322 227.795 47.8022 227.795 46.2222C227.795 44.6422 227.335 43.4222 226.415 42.5622C225.515 41.6822 224.305 41.2422 222.785 41.2422H219.815V51.2022H222.785ZM258.995 49.1022V56.7222H251.915V49.0122L243.995 35.7222H251.465L255.755 42.9822L260.075 35.7222H266.915L258.995 49.1022ZM277.915 57.2022C275.655 57.2022 273.625 56.7322 271.825 55.7922C270.025 54.8522 268.615 53.5522 267.595 51.8922C266.575 50.2122 266.065 48.3222 266.065 46.2222C266.065 44.1222 266.575 42.2422 267.595 40.5822C268.615 38.9022 270.025 37.5922 271.825 36.6522C273.625 35.7122 275.655 35.2422 277.915 35.2422C280.175 35.2422 282.205 35.7122 284.005 36.6522C285.805 37.5922 287.215 38.9022 288.235 40.5822C289.255 42.2422 289.765 44.1222 289.765 46.2222C289.765 48.3222 289.255 50.2122 288.235 51.8922C287.215 53.5522 285.805 54.8522 284.005 55.7922C282.205 56.7322 280.175 57.2022 277.915 57.2022ZM277.915 51.4722C278.795 51.4722 279.585 51.2622 280.285 50.8422C281.005 50.4022 281.575 49.7922 281.995 49.0122C282.415 48.2122 282.625 47.2822 282.625 46.2222C282.625 45.1622 282.415 44.2422 281.995 43.4622C281.575 42.6622 281.005 42.0522 280.285 41.6322C279.585 41.1922 278.795 40.9722 277.915 40.9722C277.035 40.9722 276.235 41.1922 275.515 41.6322C274.815 42.0522 274.255 42.6622 273.835 43.4622C273.415 44.2422 273.205 45.1622 273.205 46.2222C273.205 47.2822 273.415 48.2122 273.835 49.0122C274.255 49.7922 274.815 50.4022 275.515 50.8422C276.235 51.2622 277.035 51.4722 277.915 51.4722ZM302.385 57.2022C299.165 57.2022 296.655 56.3322 294.855 54.5922C293.055 52.8522 292.155 50.4122 292.155 47.2722V35.7222H299.235V47.0622C299.235 48.6022 299.505 49.7222 300.045 50.4222C300.605 51.1222 301.405 51.4722 302.445 51.4722C303.485 51.4722 304.275 51.1222 304.815 50.4222C305.375 49.7222 305.655 48.6022 305.655 47.0622V35.7222H312.615V47.2722C312.615 50.4122 311.715 52.8522 309.915 54.5922C308.115 56.3322 305.605 57.2022 302.385 57.2022ZM324.86 51.4422H322.94V56.7222H315.86V35.7222H325.97C327.91 35.7222 329.6 36.0422 331.04 36.6822C332.48 37.3222 333.59 38.2422 334.37 39.4422C335.15 40.6422 335.54 42.0422 335.54 43.6422C335.54 45.1422 335.2 46.4522 334.52 47.5722C333.84 48.6922 332.86 49.5822 331.58 50.2422L335.99 56.7222H328.43L324.86 51.4422ZM328.4 43.6422C328.4 42.8622 328.16 42.2622 327.68 41.8422C327.2 41.4022 326.48 41.1822 325.52 41.1822H322.94V46.1022H325.52C326.48 46.1022 327.2 45.8922 327.68 45.4722C328.16 45.0322 328.4 44.4222 328.4 43.6422ZM364.008 45.7422C365.248 46.2022 366.208 46.8722 366.888 47.7522C367.568 48.6322 367.908 49.6922 367.908 50.9322C367.908 52.7722 367.148 54.2022 365.628 55.2222C364.108 56.2222 361.908 56.7222 359.028 56.7222H347.208V35.7222H358.428C361.228 35.7222 363.338 36.2222 364.758 37.2222C366.198 38.2222 366.918 39.5522 366.918 41.2122C366.918 42.1922 366.668 43.0722 366.168 43.8522C365.688 44.6322 364.968 45.2622 364.008 45.7422ZM354.168 40.6722V43.7922H357.468C359.008 43.7922 359.778 43.2722 359.778 42.2322C359.778 41.1922 359.008 40.6722 357.468 40.6722H354.168ZM358.428 51.7722C359.988 51.7722 360.768 51.2222 360.768 50.1222C360.768 49.0222 359.988 48.4722 358.428 48.4722H354.168V51.7722H358.428ZM384.721 53.0622H376.741L375.331 56.7222H368.131L377.311 35.7222H384.271L393.451 56.7222H386.131L384.721 53.0622ZM382.771 47.9622L380.731 42.6822L378.691 47.9622H382.771ZM402.411 57.2022C400.671 57.2022 398.971 57.0122 397.311 56.6322C395.671 56.2322 394.321 55.7022 393.261 55.0422L395.541 49.8822C396.541 50.4622 397.661 50.9322 398.901 51.2922C400.141 51.6322 401.331 51.8022 402.471 51.8022C403.451 51.8022 404.151 51.7122 404.571 51.5322C404.991 51.3322 405.201 51.0422 405.201 50.6622C405.201 50.2222 404.921 49.8922 404.361 49.6722C403.821 49.4522 402.921 49.2122 401.661 48.9522C400.041 48.6122 398.691 48.2522 397.611 47.8722C396.531 47.4722 395.591 46.8322 394.791 45.9522C393.991 45.0522 393.591 43.8422 393.591 42.3222C393.591 41.0022 393.961 39.8022 394.701 38.7222C395.441 37.6422 396.541 36.7922 398.001 36.1722C399.481 35.5522 401.271 35.2422 403.371 35.2422C404.811 35.2422 406.221 35.4022 407.601 35.7222C409.001 36.0222 410.231 36.4722 411.291 37.0722L409.161 42.2022C407.101 41.1622 405.151 40.6422 403.311 40.6422C401.491 40.6422 400.581 41.0822 400.581 41.9622C400.581 42.3822 400.851 42.7022 401.391 42.9222C401.931 43.1222 402.821 43.3422 404.061 43.5822C405.661 43.8822 407.011 44.2322 408.111 44.6322C409.211 45.0122 410.161 45.6422 410.961 46.5222C411.781 47.4022 412.191 48.6022 412.191 50.1222C412.191 51.4422 411.821 52.6422 411.081 53.7222C410.341 54.7822 409.231 55.6322 407.751 56.2722C406.291 56.8922 404.511 57.2022 402.411 57.2022ZM431.758 51.3822V56.7222H414.298V35.7222H431.368V41.0622H421.258V43.5222H430.138V48.6222H421.258V51.3822H431.758Z" fill="#415167"/>
<path d="M114.384 5.31875C114.57 5.07875 114.804 4.95875 115.084 4.95875C115.324 4.95875 115.537 5.05875 115.724 5.25875C115.924 5.44542 116.024 5.66542 116.024 5.91875C116.024 6.15875 115.944 6.36542 115.784 6.53875L111.064 12.4188V18.2188C111.064 18.5521 110.964 18.8121 110.764 18.9988C110.577 19.1721 110.33 19.2588 110.024 19.2588C109.717 19.2588 109.47 19.1721 109.284 18.9988C109.097 18.8121 109.004 18.5521 109.004 18.2188V12.4188L104.284 6.53875C104.124 6.36542 104.044 6.15208 104.044 5.89875C104.044 5.64542 104.137 5.42542 104.324 5.23875C104.51 5.05209 104.73 4.95875 104.984 4.95875C105.25 4.95875 105.484 5.07875 105.684 5.31875L110.044 10.7988L114.384 5.31875ZM120.247 19.2988C119.287 19.2988 118.441 19.0921 117.707 18.6788C116.987 18.2654 116.427 17.6788 116.027 16.9188C115.641 16.1454 115.447 15.2521 115.447 14.2388C115.447 13.2121 115.641 12.3188 116.027 11.5588C116.427 10.7854 116.987 10.1921 117.707 9.77875C118.441 9.36542 119.287 9.15875 120.247 9.15875C121.207 9.15875 122.047 9.36542 122.767 9.77875C123.501 10.1921 124.061 10.7854 124.447 11.5588C124.847 12.3188 125.047 13.2121 125.047 14.2388C125.047 15.2521 124.847 16.1454 124.447 16.9188C124.061 17.6788 123.501 18.2654 122.767 18.6788C122.047 19.0921 121.207 19.2988 120.247 19.2988ZM120.247 17.6988C121.141 17.6988 121.821 17.4054 122.287 16.8188C122.767 16.2321 123.007 15.3721 123.007 14.2388C123.007 13.1188 122.767 12.2654 122.287 11.6788C121.807 11.0788 121.127 10.7788 120.247 10.7788C119.367 10.7788 118.687 11.0788 118.207 11.6788C117.727 12.2654 117.487 13.1188 117.487 14.2388C117.487 15.3721 117.721 16.2321 118.187 16.8188C118.667 17.4054 119.354 17.6988 120.247 17.6988ZM134.856 9.19875C135.163 9.19875 135.403 9.28542 135.576 9.45875C135.763 9.63209 135.856 9.87209 135.856 10.1788V18.3188C135.856 18.5988 135.763 18.8254 135.576 18.9988C135.39 19.1721 135.143 19.2588 134.836 19.2588C134.556 19.2588 134.33 19.1788 134.156 19.0188C133.983 18.8454 133.896 18.6188 133.896 18.3388V17.5788C133.59 18.1388 133.163 18.5654 132.616 18.8588C132.083 19.1521 131.483 19.2988 130.816 19.2988C128.443 19.2988 127.256 17.9921 127.256 15.3788V10.1788C127.256 9.87209 127.343 9.63209 127.516 9.45875C127.703 9.28542 127.956 9.19875 128.276 9.19875C128.583 9.19875 128.823 9.28542 128.996 9.45875C129.183 9.63209 129.276 9.87209 129.276 10.1788V15.3588C129.276 16.1454 129.436 16.7254 129.756 17.0988C130.076 17.4721 130.57 17.6588 131.236 17.6588C132.023 17.6588 132.65 17.4054 133.116 16.8988C133.596 16.3921 133.836 15.7188 133.836 14.8788V10.1788C133.836 9.88542 133.93 9.65209 134.116 9.47875C134.303 9.29209 134.55 9.19875 134.856 9.19875ZM143.803 9.19875C144.443 9.15875 144.763 9.43209 144.763 10.0188C144.763 10.3121 144.69 10.5321 144.543 10.6788C144.397 10.8254 144.143 10.9121 143.783 10.9388L143.183 10.9988C142.343 11.0788 141.717 11.3721 141.303 11.8788C140.903 12.3854 140.703 12.9988 140.703 13.7188V18.2988C140.703 18.6188 140.61 18.8588 140.423 19.0188C140.237 19.1788 139.997 19.2588 139.703 19.2588C139.41 19.2588 139.163 19.1788 138.963 19.0188C138.777 18.8588 138.683 18.6188 138.683 18.2988V10.1588C138.683 9.85209 138.777 9.61875 138.963 9.45875C139.163 9.28542 139.41 9.19875 139.703 9.19875C139.97 9.19875 140.19 9.28542 140.363 9.45875C140.55 9.61875 140.643 9.84542 140.643 10.1388V11.0988C140.91 10.5121 141.297 10.0654 141.803 9.75875C142.31 9.45209 142.883 9.27209 143.523 9.21875L143.803 9.19875ZM152.541 19.2588C152.234 19.2588 151.988 19.1654 151.801 18.9788C151.614 18.7921 151.521 18.5388 151.521 18.2188V6.05875C151.521 5.75209 151.608 5.51209 151.781 5.33875C151.968 5.15208 152.221 5.05875 152.541 5.05875H157.361C158.854 5.05875 160.014 5.42542 160.841 6.15875C161.668 6.89209 162.081 7.93209 162.081 9.27875C162.081 10.6121 161.668 11.6521 160.841 12.3988C160.014 13.1454 158.854 13.5188 157.361 13.5188H153.581V18.2188C153.581 18.5388 153.488 18.7921 153.301 18.9788C153.128 19.1654 152.874 19.2588 152.541 19.2588ZM157.141 11.8588C159.114 11.8588 160.101 10.9988 160.101 9.27875C160.101 7.57209 159.114 6.71875 157.141 6.71875H153.581V11.8588H157.141ZM171.636 16.6988C171.822 16.6988 171.976 16.7721 172.096 16.9188C172.216 17.0654 172.276 17.2521 172.276 17.4788C172.276 17.8654 172.036 18.1921 171.556 18.4588C171.089 18.7254 170.576 18.9321 170.016 19.0788C169.469 19.2254 168.942 19.2988 168.436 19.2988C166.889 19.2988 165.669 18.8521 164.776 17.9588C163.882 17.0521 163.436 15.8188 163.436 14.2588C163.436 13.2588 163.629 12.3721 164.016 11.5988C164.416 10.8254 164.969 10.2254 165.676 9.79875C166.396 9.37209 167.209 9.15875 168.116 9.15875C169.422 9.15875 170.456 9.57875 171.216 10.4188C171.976 11.2588 172.356 12.3921 172.356 13.8188C172.356 14.3521 172.116 14.6188 171.636 14.6188H165.456C165.589 16.6854 166.582 17.7188 168.436 17.7188C168.929 17.7188 169.356 17.6521 169.716 17.5188C170.076 17.3854 170.456 17.2121 170.856 16.9988C170.896 16.9721 171.002 16.9188 171.176 16.8388C171.362 16.7454 171.516 16.6988 171.636 16.6988ZM168.156 10.6388C167.382 10.6388 166.762 10.8854 166.296 11.3788C165.829 11.8721 165.549 12.5654 165.456 13.4588H170.616C170.576 12.5521 170.342 11.8588 169.916 11.3788C169.502 10.8854 168.916 10.6388 168.156 10.6388ZM179.702 9.19875C180.342 9.15875 180.662 9.43209 180.662 10.0188C180.662 10.3121 180.588 10.5321 180.442 10.6788C180.295 10.8254 180.042 10.9121 179.682 10.9388L179.082 10.9988C178.242 11.0788 177.615 11.3721 177.202 11.8788C176.802 12.3854 176.602 12.9988 176.602 13.7188V18.2988C176.602 18.6188 176.508 18.8588 176.322 19.0188C176.135 19.1788 175.895 19.2588 175.602 19.2588C175.308 19.2588 175.062 19.1788 174.862 19.0188C174.675 18.8588 174.582 18.6188 174.582 18.2988V10.1588C174.582 9.85209 174.675 9.61875 174.862 9.45875C175.062 9.28542 175.308 9.19875 175.602 9.19875C175.868 9.19875 176.088 9.28542 176.262 9.45875C176.448 9.61875 176.542 9.84542 176.542 10.1388V11.0988C176.808 10.5121 177.195 10.0654 177.702 9.75875C178.208 9.45209 178.782 9.27209 179.422 9.21875L179.702 9.19875ZM185.208 19.2988C183.848 19.2988 182.735 19.0188 181.868 18.4588C181.628 18.3121 181.455 18.1588 181.348 17.9988C181.255 17.8388 181.208 17.6588 181.208 17.4588C181.208 17.2454 181.268 17.0654 181.388 16.9188C181.508 16.7721 181.662 16.6988 181.848 16.6988C182.022 16.6988 182.295 16.8054 182.668 17.0188C183.068 17.2321 183.455 17.4054 183.828 17.5388C184.215 17.6721 184.695 17.7388 185.268 17.7388C185.908 17.7388 186.408 17.6254 186.768 17.3988C187.128 17.1721 187.308 16.8521 187.308 16.4388C187.308 16.1721 187.235 15.9588 187.088 15.7988C186.955 15.6388 186.715 15.4988 186.368 15.3788C186.022 15.2454 185.508 15.1054 184.828 14.9588C183.655 14.7054 182.808 14.3654 182.288 13.9388C181.782 13.4988 181.528 12.9054 181.528 12.1588C181.528 11.5854 181.695 11.0721 182.028 10.6188C182.362 10.1521 182.822 9.79209 183.408 9.53875C183.995 9.28542 184.662 9.15875 185.408 9.15875C185.942 9.15875 186.462 9.23209 186.968 9.37875C187.475 9.51209 187.922 9.71209 188.308 9.97875C188.748 10.2721 188.968 10.6121 188.968 10.9988C188.968 11.2121 188.902 11.3921 188.768 11.5388C188.648 11.6854 188.502 11.7588 188.328 11.7588C188.208 11.7588 188.088 11.7321 187.968 11.6788C187.848 11.6254 187.688 11.5388 187.488 11.4188C187.128 11.2054 186.788 11.0388 186.468 10.9188C186.162 10.7988 185.775 10.7388 185.308 10.7388C184.748 10.7388 184.295 10.8588 183.948 11.0988C183.615 11.3388 183.448 11.6654 183.448 12.0788C183.448 12.4521 183.602 12.7454 183.908 12.9588C184.228 13.1588 184.822 13.3521 185.688 13.5388C186.582 13.7254 187.282 13.9388 187.788 14.1788C188.295 14.4188 188.655 14.7188 188.868 15.0788C189.095 15.4254 189.208 15.8721 189.208 16.4188C189.208 17.2854 188.842 17.9854 188.108 18.5188C187.388 19.0388 186.422 19.2988 185.208 19.2988ZM195.697 19.2988C194.737 19.2988 193.89 19.0921 193.157 18.6788C192.437 18.2654 191.877 17.6788 191.477 16.9188C191.09 16.1454 190.897 15.2521 190.897 14.2388C190.897 13.2121 191.09 12.3188 191.477 11.5588C191.877 10.7854 192.437 10.1921 193.157 9.77875C193.89 9.36542 194.737 9.15875 195.697 9.15875C196.657 9.15875 197.497 9.36542 198.217 9.77875C198.95 10.1921 199.51 10.7854 199.897 11.5588C200.297 12.3188 200.497 13.2121 200.497 14.2388C200.497 15.2521 200.297 16.1454 199.897 16.9188C199.51 17.6788 198.95 18.2654 198.217 18.6788C197.497 19.0921 196.657 19.2988 195.697 19.2988ZM195.697 17.6988C196.59 17.6988 197.27 17.4054 197.737 16.8188C198.217 16.2321 198.457 15.3721 198.457 14.2388C198.457 13.1188 198.217 12.2654 197.737 11.6788C197.257 11.0788 196.577 10.7788 195.697 10.7788C194.817 10.7788 194.137 11.0788 193.657 11.6788C193.177 12.2654 192.937 13.1188 192.937 14.2388C192.937 15.3721 193.17 16.2321 193.637 16.8188C194.117 17.4054 194.803 17.6988 195.697 17.6988ZM208.006 9.15875C210.339 9.15875 211.506 10.4721 211.506 13.0988V18.2988C211.506 18.6054 211.412 18.8454 211.226 19.0188C211.052 19.1788 210.806 19.2588 210.486 19.2588C210.179 19.2588 209.932 19.1721 209.746 18.9988C209.572 18.8254 209.486 18.5921 209.486 18.2988V13.1988C209.486 12.3721 209.319 11.7654 208.986 11.3788C208.666 10.9921 208.159 10.7988 207.466 10.7988C206.652 10.7988 205.999 11.0521 205.506 11.5588C205.012 12.0654 204.766 12.7454 204.766 13.5988V18.2988C204.766 18.5921 204.672 18.8254 204.486 18.9988C204.312 19.1721 204.072 19.2588 203.766 19.2588C203.459 19.2588 203.212 19.1721 203.026 18.9988C202.839 18.8254 202.746 18.5921 202.746 18.2988V10.1588C202.746 9.87875 202.839 9.65209 203.026 9.47875C203.226 9.29209 203.472 9.19875 203.766 9.19875C204.059 9.19875 204.292 9.28542 204.466 9.45875C204.639 9.63209 204.726 9.85875 204.726 10.1388V10.9588C205.046 10.3721 205.492 9.92542 206.066 9.61875C206.639 9.31209 207.286 9.15875 208.006 9.15875ZM218.369 9.15875C219.662 9.15875 220.622 9.48542 221.249 10.1388C221.889 10.7921 222.209 11.7854 222.209 13.1188V18.2988C222.209 18.6054 222.122 18.8454 221.949 19.0188C221.776 19.1788 221.536 19.2588 221.229 19.2588C220.936 19.2588 220.702 19.1721 220.529 18.9988C220.356 18.8254 220.269 18.5921 220.269 18.2988V17.5588C220.016 18.1188 219.636 18.5521 219.129 18.8588C218.636 19.1521 218.056 19.2988 217.389 19.2988C216.749 19.2988 216.162 19.1721 215.629 18.9188C215.096 18.6521 214.676 18.2854 214.369 17.8188C214.076 17.3521 213.929 16.8321 213.929 16.2588C213.929 15.5521 214.109 14.9988 214.469 14.5988C214.842 14.1854 215.449 13.8921 216.289 13.7188C217.142 13.5454 218.309 13.4588 219.789 13.4588H220.249V12.8788C220.249 12.1321 220.096 11.5921 219.789 11.2588C219.482 10.9254 218.989 10.7588 218.309 10.7588C217.842 10.7588 217.402 10.8188 216.989 10.9388C216.576 11.0588 216.122 11.2321 215.629 11.4588C215.269 11.6588 215.016 11.7588 214.869 11.7588C214.669 11.7588 214.502 11.6854 214.369 11.5388C214.249 11.3921 214.189 11.2054 214.189 10.9788C214.189 10.7788 214.242 10.6054 214.349 10.4588C214.469 10.2988 214.656 10.1454 214.909 9.99875C215.376 9.74542 215.922 9.54542 216.549 9.39875C217.176 9.23875 217.782 9.15875 218.369 9.15875ZM217.749 17.7988C218.482 17.7988 219.082 17.5521 219.549 17.0588C220.016 16.5521 220.249 15.9054 220.249 15.1188V14.5988H219.889C218.849 14.5988 218.049 14.6454 217.489 14.7388C216.929 14.8321 216.529 14.9921 216.289 15.2188C216.049 15.4321 215.929 15.7454 215.929 16.1588C215.929 16.6388 216.102 17.0321 216.449 17.3388C216.796 17.6454 217.229 17.7988 217.749 17.7988ZM225.992 19.2588C225.699 19.2588 225.452 19.1788 225.252 19.0188C225.066 18.8588 224.972 18.6188 224.972 18.2988V5.93875C224.972 5.61875 225.066 5.37875 225.252 5.21875C225.452 5.04542 225.699 4.95875 225.992 4.95875C226.286 4.95875 226.526 5.04542 226.712 5.21875C226.899 5.37875 226.992 5.61875 226.992 5.93875V18.2988C226.992 18.6188 226.899 18.8588 226.712 19.0188C226.526 19.1788 226.286 19.2588 225.992 19.2588ZM230.836 19.2588C230.543 19.2588 230.296 19.1788 230.096 19.0188C229.909 18.8588 229.816 18.6188 229.816 18.2988V10.1788C229.816 9.85875 229.909 9.61875 230.096 9.45875C230.296 9.28542 230.543 9.19875 230.836 9.19875C231.129 9.19875 231.369 9.28542 231.556 9.45875C231.743 9.61875 231.836 9.85875 231.836 10.1788V18.2988C231.836 18.6188 231.743 18.8588 231.556 19.0188C231.369 19.1788 231.129 19.2588 230.836 19.2588ZM230.836 7.23875C230.449 7.23875 230.143 7.13209 229.916 6.91875C229.689 6.70542 229.576 6.42542 229.576 6.07875C229.576 5.73209 229.689 5.45875 229.916 5.25875C230.143 5.04542 230.449 4.93875 230.836 4.93875C231.209 4.93875 231.509 5.04542 231.736 5.25875C231.976 5.45875 232.096 5.73209 232.096 6.07875C232.096 6.42542 231.983 6.70542 231.756 6.91875C231.529 7.13209 231.223 7.23875 230.836 7.23875ZM241.88 17.5988C242.173 17.5988 242.393 17.6721 242.54 17.8188C242.7 17.9521 242.78 18.1388 242.78 18.3788C242.78 18.6188 242.7 18.8121 242.54 18.9588C242.393 19.0921 242.173 19.1588 241.88 19.1588H235.04C234.746 19.1588 234.513 19.0788 234.34 18.9188C234.166 18.7454 234.08 18.5321 234.08 18.2788C234.08 18.0254 234.18 17.7788 234.38 17.5388L239.94 10.9588H234.92C234.64 10.9588 234.42 10.8921 234.26 10.7588C234.113 10.6121 234.04 10.4188 234.04 10.1788C234.04 9.93875 234.113 9.75209 234.26 9.61875C234.42 9.47209 234.64 9.39875 234.92 9.39875H241.56C241.84 9.39875 242.066 9.48542 242.24 9.65875C242.426 9.83209 242.52 10.0388 242.52 10.2788C242.52 10.5321 242.42 10.7788 242.22 11.0188L236.66 17.5988H241.88ZM252.183 16.6988C252.369 16.6988 252.523 16.7721 252.643 16.9188C252.763 17.0654 252.823 17.2521 252.823 17.4788C252.823 17.8654 252.583 18.1921 252.103 18.4588C251.636 18.7254 251.123 18.9321 250.563 19.0788C250.016 19.2254 249.489 19.2988 248.983 19.2988C247.436 19.2988 246.216 18.8521 245.323 17.9588C244.429 17.0521 243.983 15.8188 243.983 14.2588C243.983 13.2588 244.176 12.3721 244.563 11.5988C244.963 10.8254 245.516 10.2254 246.223 9.79875C246.943 9.37209 247.756 9.15875 248.663 9.15875C249.969 9.15875 251.003 9.57875 251.763 10.4188C252.523 11.2588 252.903 12.3921 252.903 13.8188C252.903 14.3521 252.663 14.6188 252.183 14.6188H246.003C246.136 16.6854 247.129 17.7188 248.983 17.7188C249.476 17.7188 249.903 17.6521 250.263 17.5188C250.623 17.3854 251.003 17.2121 251.403 16.9988C251.443 16.9721 251.549 16.9188 251.723 16.8388C251.909 16.7454 252.063 16.6988 252.183 16.6988ZM248.703 10.6388C247.929 10.6388 247.309 10.8854 246.843 11.3788C246.376 11.8721 246.096 12.5654 246.003 13.4588H251.163C251.123 12.5521 250.889 11.8588 250.463 11.3788C250.049 10.8854 249.463 10.6388 248.703 10.6388ZM263.109 4.95875C263.415 4.95875 263.662 5.04542 263.849 5.21875C264.035 5.39209 264.129 5.62542 264.129 5.91875V18.2788C264.129 18.5854 264.035 18.8254 263.849 18.9988C263.675 19.1721 263.435 19.2588 263.129 19.2588C262.822 19.2588 262.575 19.1721 262.389 18.9988C262.215 18.8254 262.129 18.5854 262.129 18.2788V17.4788C261.835 18.0654 261.409 18.5188 260.849 18.8388C260.289 19.1454 259.642 19.2988 258.909 19.2988C258.069 19.2988 257.315 19.0854 256.649 18.6588C255.995 18.2321 255.482 17.6321 255.109 16.8588C254.749 16.0854 254.569 15.1988 254.569 14.1988C254.569 13.1854 254.749 12.2988 255.109 11.5388C255.482 10.7788 255.995 10.1921 256.649 9.77875C257.302 9.36542 258.055 9.15875 258.909 9.15875C259.642 9.15875 260.282 9.31875 260.829 9.63875C261.389 9.94542 261.815 10.3854 262.109 10.9588V5.87875C262.109 5.59875 262.195 5.37875 262.369 5.21875C262.555 5.04542 262.802 4.95875 263.109 4.95875ZM259.389 17.6988C260.255 17.6988 260.929 17.3988 261.409 16.7988C261.889 16.1988 262.129 15.3454 262.129 14.2388C262.129 13.1321 261.889 12.2788 261.409 11.6788C260.942 11.0788 260.269 10.7788 259.389 10.7788C258.509 10.7788 257.822 11.0788 257.329 11.6788C256.849 12.2654 256.609 13.1054 256.609 14.1988C256.609 15.2921 256.855 16.1521 257.349 16.7788C257.842 17.3921 258.522 17.6988 259.389 17.6988ZM278.598 19.3188C277.252 19.3188 276.078 19.0321 275.078 18.4588C274.078 17.8721 273.312 17.0388 272.778 15.9588C272.245 14.8654 271.978 13.5788 271.978 12.0988C271.978 10.6321 272.245 9.35875 272.778 8.27875C273.312 7.18542 274.078 6.35208 275.078 5.77875C276.078 5.19208 277.252 4.89875 278.598 4.89875C279.478 4.89875 280.312 5.03875 281.098 5.31875C281.885 5.58542 282.572 5.97875 283.158 6.49875C283.412 6.69875 283.538 6.96542 283.538 7.29875C283.538 7.53875 283.472 7.74542 283.338 7.91875C283.205 8.07875 283.045 8.15875 282.858 8.15875C282.632 8.15875 282.412 8.07209 282.198 7.89875C281.558 7.41875 280.972 7.08542 280.438 6.89875C279.918 6.69875 279.325 6.59875 278.658 6.59875C277.192 6.59875 276.065 7.07209 275.278 8.01875C274.492 8.96542 274.098 10.3254 274.098 12.0988C274.098 13.8854 274.492 15.2521 275.278 16.1988C276.065 17.1454 277.192 17.6188 278.658 17.6188C279.298 17.6188 279.878 17.5188 280.398 17.3188C280.932 17.1188 281.532 16.7854 282.198 16.3188C282.465 16.1454 282.685 16.0588 282.858 16.0588C283.045 16.0588 283.205 16.1454 283.338 16.3188C283.472 16.4788 283.538 16.6788 283.538 16.9188C283.538 17.2521 283.412 17.5188 283.158 17.7188C282.572 18.2388 281.885 18.6388 281.098 18.9188C280.312 19.1854 279.478 19.3188 278.598 19.3188ZM289.798 19.2988C288.838 19.2988 287.992 19.0921 287.258 18.6788C286.538 18.2654 285.978 17.6788 285.578 16.9188C285.192 16.1454 284.998 15.2521 284.998 14.2388C284.998 13.2121 285.192 12.3188 285.578 11.5588C285.978 10.7854 286.538 10.1921 287.258 9.77875C287.992 9.36542 288.838 9.15875 289.798 9.15875C290.758 9.15875 291.598 9.36542 292.318 9.77875C293.052 10.1921 293.612 10.7854 293.998 11.5588C294.398 12.3188 294.598 13.2121 294.598 14.2388C294.598 15.2521 294.398 16.1454 293.998 16.9188C293.612 17.6788 293.052 18.2654 292.318 18.6788C291.598 19.0921 290.758 19.2988 289.798 19.2988ZM289.798 17.6988C290.692 17.6988 291.372 17.4054 291.838 16.8188C292.318 16.2321 292.558 15.3721 292.558 14.2388C292.558 13.1188 292.318 12.2654 291.838 11.6788C291.358 11.0788 290.678 10.7788 289.798 10.7788C288.918 10.7788 288.238 11.0788 287.758 11.6788C287.278 12.2654 287.038 13.1188 287.038 14.2388C287.038 15.3721 287.272 16.2321 287.738 16.8188C288.218 17.4054 288.905 17.6988 289.798 17.6988ZM301.408 6.59875C300.742 6.65209 300.248 6.86542 299.928 7.23875C299.608 7.59875 299.448 8.13209 299.448 8.83875V9.39875H301.428C301.708 9.39875 301.922 9.47209 302.068 9.61875C302.228 9.75209 302.308 9.93875 302.308 10.1788C302.308 10.4188 302.228 10.6121 302.068 10.7588C301.922 10.8921 301.708 10.9588 301.428 10.9588H299.448V18.2788C299.448 18.5988 299.348 18.8454 299.148 19.0188C298.962 19.1788 298.722 19.2588 298.428 19.2588C298.135 19.2588 297.895 19.1788 297.708 19.0188C297.522 18.8454 297.428 18.5988 297.428 18.2788V10.9588H296.228C295.948 10.9588 295.728 10.8921 295.568 10.7588C295.422 10.6121 295.348 10.4188 295.348 10.1788C295.348 9.93875 295.422 9.75209 295.568 9.61875C295.728 9.47209 295.948 9.39875 296.228 9.39875H297.428V9.13875C297.428 7.91208 297.742 6.95208 298.368 6.25875C298.995 5.55209 299.882 5.15875 301.028 5.07875L301.548 5.03875C301.975 5.01209 302.282 5.05875 302.468 5.17875C302.668 5.29875 302.768 5.49208 302.768 5.75875C302.768 6.22542 302.488 6.49208 301.928 6.55875L301.408 6.59875ZM308.166 6.59875C307.499 6.65209 307.006 6.86542 306.686 7.23875C306.366 7.59875 306.206 8.13209 306.206 8.83875V9.39875H308.186C308.466 9.39875 308.679 9.47209 308.826 9.61875C308.986 9.75209 309.066 9.93875 309.066 10.1788C309.066 10.4188 308.986 10.6121 308.826 10.7588C308.679 10.8921 308.466 10.9588 308.186 10.9588H306.206V18.2788C306.206 18.5988 306.106 18.8454 305.906 19.0188C305.719 19.1788 305.479 19.2588 305.186 19.2588C304.893 19.2588 304.653 19.1788 304.466 19.0188C304.279 18.8454 304.186 18.5988 304.186 18.2788V10.9588H302.986C302.706 10.9588 302.486 10.8921 302.326 10.7588C302.179 10.6121 302.106 10.4188 302.106 10.1788C302.106 9.93875 302.179 9.75209 302.326 9.61875C302.486 9.47209 302.706 9.39875 302.986 9.39875H304.186V9.13875C304.186 7.91208 304.499 6.95208 305.126 6.25875C305.753 5.55209 306.639 5.15875 307.786 5.07875L308.306 5.03875C308.733 5.01209 309.039 5.05875 309.226 5.17875C309.426 5.29875 309.526 5.49208 309.526 5.75875C309.526 6.22542 309.246 6.49208 308.686 6.55875L308.166 6.59875ZM317.944 16.6988C318.131 16.6988 318.284 16.7721 318.404 16.9188C318.524 17.0654 318.584 17.2521 318.584 17.4788C318.584 17.8654 318.344 18.1921 317.864 18.4588C317.398 18.7254 316.884 18.9321 316.324 19.0788C315.778 19.2254 315.251 19.2988 314.744 19.2988C313.198 19.2988 311.978 18.8521 311.084 17.9588C310.191 17.0521 309.744 15.8188 309.744 14.2588C309.744 13.2588 309.938 12.3721 310.324 11.5988C310.724 10.8254 311.278 10.2254 311.984 9.79875C312.704 9.37209 313.518 9.15875 314.424 9.15875C315.731 9.15875 316.764 9.57875 317.524 10.4188C318.284 11.2588 318.664 12.3921 318.664 13.8188C318.664 14.3521 318.424 14.6188 317.944 14.6188H311.764C311.898 16.6854 312.891 17.7188 314.744 17.7188C315.238 17.7188 315.664 17.6521 316.024 17.5188C316.384 17.3854 316.764 17.2121 317.164 16.9988C317.204 16.9721 317.311 16.9188 317.484 16.8388C317.671 16.7454 317.824 16.6988 317.944 16.6988ZM314.464 10.6388C313.691 10.6388 313.071 10.8854 312.604 11.3788C312.138 11.8721 311.858 12.5654 311.764 13.4588H316.924C316.884 12.5521 316.651 11.8588 316.224 11.3788C315.811 10.8854 315.224 10.6388 314.464 10.6388ZM328.53 16.6988C328.717 16.6988 328.87 16.7721 328.99 16.9188C329.11 17.0654 329.17 17.2521 329.17 17.4788C329.17 17.8654 328.93 18.1921 328.45 18.4588C327.984 18.7254 327.47 18.9321 326.91 19.0788C326.364 19.2254 325.837 19.2988 325.33 19.2988C323.784 19.2988 322.564 18.8521 321.67 17.9588C320.777 17.0521 320.33 15.8188 320.33 14.2588C320.33 13.2588 320.524 12.3721 320.91 11.5988C321.31 10.8254 321.864 10.2254 322.57 9.79875C323.29 9.37209 324.104 9.15875 325.01 9.15875C326.317 9.15875 327.35 9.57875 328.11 10.4188C328.87 11.2588 329.25 12.3921 329.25 13.8188C329.25 14.3521 329.01 14.6188 328.53 14.6188H322.35C322.484 16.6854 323.477 17.7188 325.33 17.7188C325.824 17.7188 326.25 17.6521 326.61 17.5188C326.97 17.3854 327.35 17.2121 327.75 16.9988C327.79 16.9721 327.897 16.9188 328.07 16.8388C328.257 16.7454 328.41 16.6988 328.53 16.6988ZM325.05 10.6388C324.277 10.6388 323.657 10.8854 323.19 11.3788C322.724 11.8721 322.444 12.5654 322.35 13.4588H327.51C327.47 12.5521 327.237 11.8588 326.81 11.3788C326.397 10.8854 325.81 10.6388 325.05 10.6388Z" fill="#415167"/>
</svg>
