<svg width="331" height="60" viewBox="0 0 331 60" fill="none" xmlns="http://www.w3.org/2000/svg">
<g clip-path="url(#clip0)">
<path d="M12.57 54.48C10.35 54.48 8.35 54.02 6.57 53.1C4.79 52.16 3.39 50.86 2.37 49.2C1.37 47.52 0.87 45.62 0.87 43.5C0.87 41.38 1.37 39.49 2.37 37.83C3.39 36.15 4.79 34.85 6.57 33.93C8.35 32.99 10.35 32.52 12.57 32.52C14.61 32.52 16.43 32.88 18.03 33.6C19.63 34.32 20.95 35.36 21.99 36.72L17.52 40.71C16.22 39.07 14.69 38.25 12.93 38.25C11.45 38.25 10.26 38.73 9.36 39.69C8.46 40.63 8.01 41.9 8.01 43.5C8.01 45.1 8.46 46.38 9.36 47.34C10.26 48.28 11.45 48.75 12.93 48.75C14.69 48.75 16.22 47.93 17.52 46.29L21.99 50.28C20.95 51.64 19.63 52.68 18.03 53.4C16.43 54.12 14.61 54.48 12.57 54.48ZM44.7342 33V54H37.6542V46.26H31.1142V54H24.0342V33H31.1142V40.44H37.6542V33H44.7342ZM58.1955 54.48C54.9755 54.48 52.4655 53.61 50.6655 51.87C48.8655 50.13 47.9655 47.69 47.9655 44.55V33H55.0455V44.34C55.0455 45.88 55.3155 47 55.8555 47.7C56.4155 48.4 57.2155 48.75 58.2555 48.75C59.2955 48.75 60.0855 48.4 60.6255 47.7C61.1855 47 61.4655 45.88 61.4655 44.34V33H68.4255V44.55C68.4255 47.69 67.5255 50.13 65.7255 51.87C63.9255 53.61 61.4155 54.48 58.1955 54.48ZM85.5415 50.34H77.5615L76.1515 54H68.9515L78.1315 33H85.0915L94.2715 54H86.9515L85.5415 50.34ZM83.5915 45.24L81.5515 39.96L79.5115 45.24H83.5915ZM84.1315 31.29L81.6115 29.46L79.0915 31.29H74.8915L78.7615 27.39H84.4615L88.3315 31.29H84.1315ZM86.5015 27.39C87.1815 27.03 87.5215 26.66 87.5215 26.28C87.5215 26.06 87.4415 25.88 87.2815 25.74C87.1215 25.6 86.9115 25.53 86.6515 25.53C86.2115 25.53 85.7515 25.65 85.2715 25.89L84.2515 24.06C85.0515 23.56 86.0415 23.31 87.2215 23.31C88.2015 23.31 88.9815 23.55 89.5615 24.03C90.1415 24.49 90.4315 25.13 90.4315 25.95C90.4315 26.57 90.2015 27.13 89.7415 27.63C89.3015 28.11 88.7415 28.48 88.0615 28.74L86.5015 27.39ZM116.101 33V54H110.281L102.301 44.46V54H95.4014V33H101.221L109.201 42.54V33H116.101ZM142.397 42.93H148.547V51.81C147.307 52.67 145.867 53.33 144.227 53.79C142.587 54.25 140.977 54.48 139.397 54.48C137.157 54.48 135.147 54.02 133.367 53.1C131.587 52.16 130.187 50.86 129.167 49.2C128.167 47.52 127.667 45.62 127.667 43.5C127.667 41.38 128.167 39.49 129.167 37.83C130.187 36.15 131.597 34.85 133.397 33.93C135.217 32.99 137.267 32.52 139.547 32.52C141.607 32.52 143.447 32.87 145.067 33.57C146.707 34.25 148.067 35.25 149.147 36.57L144.617 40.56C143.297 39.02 141.727 38.25 139.907 38.25C138.347 38.25 137.107 38.72 136.187 39.66C135.267 40.6 134.807 41.88 134.807 43.5C134.807 45.08 135.257 46.35 136.157 47.31C137.077 48.27 138.297 48.75 139.817 48.75C140.717 48.75 141.577 48.58 142.397 48.24V42.93ZM161.614 54.48C158.394 54.48 155.884 53.61 154.084 51.87C152.284 50.13 151.384 47.69 151.384 44.55V33H158.464V44.34C158.464 45.88 158.734 47 159.274 47.7C159.834 48.4 160.634 48.75 161.674 48.75C162.714 48.75 163.504 48.4 164.044 47.7C164.604 47 164.884 45.88 164.884 44.34V33H171.844V44.55C171.844 47.69 170.944 50.13 169.144 51.87C167.344 53.61 164.834 54.48 161.614 54.48ZM184.683 33H195.033C197.373 33 199.433 33.43 201.213 34.29C203.013 35.13 204.403 36.34 205.383 37.92C206.383 39.5 206.883 41.36 206.883 43.5C206.883 45.64 206.383 47.5 205.383 49.08C204.403 50.66 203.013 51.88 201.213 52.74C199.433 53.58 197.373 54 195.033 54H184.683V33ZM194.733 48.48C196.253 48.48 197.463 48.05 198.363 47.19C199.283 46.31 199.743 45.08 199.743 43.5C199.743 41.92 199.283 40.7 198.363 39.84C197.463 38.96 196.253 38.52 194.733 38.52H191.763V48.48H194.733ZM182.103 41.31H196.203V45.39H182.103V41.31ZM219.504 54.48C216.284 54.48 213.774 53.61 211.974 51.87C210.174 50.13 209.274 47.69 209.274 44.55V33H216.354V44.34C216.354 45.88 216.624 47 217.164 47.7C217.724 48.4 218.524 48.75 219.564 48.75C220.604 48.75 221.394 48.4 221.934 47.7C222.494 47 222.774 45.88 222.774 44.34V33H229.734V44.55C229.734 47.69 228.834 50.13 227.034 51.87C225.234 53.61 222.724 54.48 219.504 54.48ZM220.374 26.49H226.824L220.914 31.29H216.414L220.374 26.49ZM253.68 33V54H247.86L239.88 44.46V54H232.98V33H238.8L246.78 42.54V33H253.68ZM270.981 42.93H277.131V51.81C275.891 52.67 274.451 53.33 272.811 53.79C271.171 54.25 269.561 54.48 267.981 54.48C265.741 54.48 263.731 54.02 261.951 53.1C260.171 52.16 258.771 50.86 257.751 49.2C256.751 47.52 256.251 45.62 256.251 43.5C256.251 41.38 256.751 39.49 257.751 37.83C258.771 36.15 260.181 34.85 261.981 33.93C263.801 32.99 265.851 32.52 268.131 32.52C270.191 32.52 272.031 32.87 273.651 33.57C275.291 34.25 276.651 35.25 277.731 36.57L273.201 40.56C271.881 39.02 270.311 38.25 268.491 38.25C266.931 38.25 265.691 38.72 264.771 39.66C263.851 40.6 263.391 41.88 263.391 43.5C263.391 45.08 263.841 46.35 264.741 47.31C265.661 48.27 266.881 48.75 268.401 48.75C269.301 48.75 270.161 48.58 270.981 48.24V42.93ZM311.582 33L302.702 54H295.742L286.862 33H294.482L299.492 45.27L304.622 33H311.582ZM312.286 33H319.366V54H312.286V33ZM315.826 60.78C315.046 60.78 314.396 60.54 313.876 60.06C313.376 59.58 313.126 58.95 313.126 58.17C313.126 57.39 313.376 56.75 313.876 56.25C314.396 55.75 315.046 55.5 315.826 55.5C316.606 55.5 317.246 55.75 317.746 56.25C318.266 56.75 318.526 57.39 318.526 58.17C318.526 58.95 318.266 59.58 317.746 60.06C317.246 60.54 316.606 60.78 315.826 60.78Z" fill="#415167"/>
<path d="M77.2448 19.16C75.8982 19.16 74.7248 18.8733 73.7248 18.3C72.7248 17.7133 71.9582 16.88 71.4248 15.8C70.8915 14.7067 70.6248 13.42 70.6248 11.94C70.6248 10.4733 70.8915 9.2 71.4248 8.12C71.9582 7.02667 72.7248 6.19333 73.7248 5.62C74.7248 5.03333 75.8982 4.74 77.2448 4.74C78.1248 4.74 78.9582 4.88 79.7448 5.16C80.5315 5.42667 81.2182 5.82 81.8048 6.34C82.0582 6.54 82.1848 6.80667 82.1848 7.14C82.1848 7.38 82.1182 7.58667 81.9848 7.76C81.8515 7.92 81.6915 8 81.5048 8C81.2782 8 81.0582 7.91333 80.8448 7.74C80.2048 7.26 79.6182 6.92667 79.0848 6.74C78.5648 6.54 77.9715 6.44 77.3048 6.44C75.8382 6.44 74.7115 6.91333 73.9248 7.86C73.1382 8.80667 72.7448 10.1667 72.7448 11.94C72.7448 13.7267 73.1382 15.0933 73.9248 16.04C74.7115 16.9867 75.8382 17.46 77.3048 17.46C77.9448 17.46 78.5248 17.36 79.0448 17.16C79.5782 16.96 80.1782 16.6267 80.8448 16.16C81.1115 15.9867 81.3315 15.9 81.5048 15.9C81.6915 15.9 81.8515 15.9867 81.9848 16.16C82.1182 16.32 82.1848 16.52 82.1848 16.76C82.1848 17.0933 82.0582 17.36 81.8048 17.56C81.2182 18.08 80.5315 18.48 79.7448 18.76C78.9582 19.0267 78.1248 19.16 77.2448 19.16ZM89.68 9C92 9 93.16 10.3133 93.16 12.94V18.14C93.16 18.4333 93.0667 18.6667 92.88 18.84C92.6933 19.0133 92.4467 19.1 92.14 19.1C91.8333 19.1 91.5867 19.0133 91.4 18.84C91.2267 18.6667 91.14 18.4333 91.14 18.14V12.96C91.14 12.16 90.9733 11.5733 90.64 11.2C90.32 10.8267 89.8133 10.64 89.12 10.64C88.3067 10.64 87.6533 10.8933 87.16 11.4C86.6667 11.9067 86.42 12.5867 86.42 13.44V18.14C86.42 18.4333 86.3267 18.6667 86.14 18.84C85.9667 19.0133 85.7267 19.1 85.42 19.1C85.1133 19.1 84.8667 19.0133 84.68 18.84C84.4933 18.6667 84.4 18.4333 84.4 18.14V5.76C84.4 5.46667 84.4933 5.23333 84.68 5.06C84.88 4.88667 85.1333 4.8 85.44 4.8C85.7333 4.8 85.9667 4.88667 86.14 5.06C86.3267 5.22 86.42 5.44 86.42 5.72V10.72C86.7533 10.16 87.2 9.73333 87.76 9.44C88.32 9.14667 88.96 9 89.68 9ZM100.163 19.14C99.2034 19.14 98.3568 18.9333 97.6234 18.52C96.9034 18.1067 96.3434 17.52 95.9434 16.76C95.5568 15.9867 95.3634 15.0933 95.3634 14.08C95.3634 13.0533 95.5568 12.16 95.9434 11.4C96.3434 10.6267 96.9034 10.0333 97.6234 9.62C98.3568 9.20667 99.2034 9 100.163 9C101.123 9 101.963 9.20667 102.683 9.62C103.417 10.0333 103.977 10.6267 104.363 11.4C104.763 12.16 104.963 13.0533 104.963 14.08C104.963 15.0933 104.763 15.9867 104.363 16.76C103.977 17.52 103.417 18.1067 102.683 18.52C101.963 18.9333 101.123 19.14 100.163 19.14ZM100.163 17.54C101.057 17.54 101.737 17.2467 102.203 16.66C102.683 16.0733 102.923 15.2133 102.923 14.08C102.923 12.96 102.683 12.1067 102.203 11.52C101.723 10.92 101.043 10.62 100.163 10.62C99.2834 10.62 98.6034 10.92 98.1234 11.52C97.6434 12.1067 97.4034 12.96 97.4034 14.08C97.4034 15.2133 97.6368 16.0733 98.1034 16.66C98.5834 17.2467 99.2701 17.54 100.163 17.54ZM111.453 19.14C110.493 19.14 109.646 18.9333 108.913 18.52C108.193 18.1067 107.633 17.52 107.233 16.76C106.846 15.9867 106.653 15.0933 106.653 14.08C106.653 13.0533 106.846 12.16 107.233 11.4C107.633 10.6267 108.193 10.0333 108.913 9.62C109.646 9.20667 110.493 9 111.453 9C112.413 9 113.253 9.20667 113.973 9.62C114.706 10.0333 115.266 10.6267 115.653 11.4C116.053 12.16 116.253 13.0533 116.253 14.08C116.253 15.0933 116.053 15.9867 115.653 16.76C115.266 17.52 114.706 18.1067 113.973 18.52C113.253 18.9333 112.413 19.14 111.453 19.14ZM111.453 17.54C112.346 17.54 113.026 17.2467 113.493 16.66C113.973 16.0733 114.213 15.2133 114.213 14.08C114.213 12.96 113.973 12.1067 113.493 11.52C113.013 10.92 112.333 10.62 111.453 10.62C110.573 10.62 109.893 10.92 109.413 11.52C108.933 12.1067 108.693 12.96 108.693 14.08C108.693 15.2133 108.926 16.0733 109.393 16.66C109.873 17.2467 110.559 17.54 111.453 17.54ZM121.902 19.14C120.542 19.14 119.428 18.86 118.562 18.3C118.322 18.1533 118.148 18 118.042 17.84C117.948 17.68 117.902 17.5 117.902 17.3C117.902 17.0867 117.962 16.9067 118.082 16.76C118.202 16.6133 118.355 16.54 118.542 16.54C118.715 16.54 118.988 16.6467 119.362 16.86C119.762 17.0733 120.148 17.2467 120.522 17.38C120.908 17.5133 121.388 17.58 121.962 17.58C122.602 17.58 123.102 17.4667 123.462 17.24C123.822 17.0133 124.002 16.6933 124.002 16.28C124.002 16.0133 123.928 15.8 123.782 15.64C123.648 15.48 123.408 15.34 123.062 15.22C122.715 15.0867 122.202 14.9467 121.522 14.8C120.348 14.5467 119.502 14.2067 118.982 13.78C118.475 13.34 118.222 12.7467 118.222 12C118.222 11.4267 118.388 10.9133 118.722 10.46C119.055 9.99333 119.515 9.63333 120.102 9.38C120.688 9.12667 121.355 9 122.102 9C122.635 9 123.155 9.07333 123.662 9.22C124.168 9.35333 124.615 9.55333 125.002 9.82C125.442 10.1133 125.662 10.4533 125.662 10.84C125.662 11.0533 125.595 11.2333 125.462 11.38C125.342 11.5267 125.195 11.6 125.022 11.6C124.902 11.6 124.782 11.5733 124.662 11.52C124.542 11.4667 124.382 11.38 124.182 11.26C123.822 11.0467 123.482 10.88 123.162 10.76C122.855 10.64 122.468 10.58 122.002 10.58C121.442 10.58 120.988 10.7 120.642 10.94C120.308 11.18 120.142 11.5067 120.142 11.92C120.142 12.2933 120.295 12.5867 120.602 12.8C120.922 13 121.515 13.1933 122.382 13.38C123.275 13.5667 123.975 13.78 124.482 14.02C124.988 14.26 125.348 14.56 125.562 14.92C125.788 15.2667 125.902 15.7133 125.902 16.26C125.902 17.1267 125.535 17.8267 124.802 18.36C124.082 18.88 123.115 19.14 121.902 19.14ZM135.79 16.54C135.977 16.54 136.13 16.6133 136.25 16.76C136.37 16.9067 136.43 17.0933 136.43 17.32C136.43 17.7067 136.19 18.0333 135.71 18.3C135.243 18.5667 134.73 18.7733 134.17 18.92C133.623 19.0667 133.097 19.14 132.59 19.14C131.043 19.14 129.823 18.6933 128.93 17.8C128.037 16.8933 127.59 15.66 127.59 14.1C127.59 13.1 127.783 12.2133 128.17 11.44C128.57 10.6667 129.123 10.0667 129.83 9.64C130.55 9.21333 131.363 9 132.27 9C133.577 9 134.61 9.42 135.37 10.26C136.13 11.1 136.51 12.2333 136.51 13.66C136.51 14.1933 136.27 14.46 135.79 14.46H129.61C129.743 16.5267 130.737 17.56 132.59 17.56C133.083 17.56 133.51 17.4933 133.87 17.36C134.23 17.2267 134.61 17.0533 135.01 16.84C135.05 16.8133 135.157 16.76 135.33 16.68C135.517 16.5867 135.67 16.54 135.79 16.54ZM132.31 10.48C131.537 10.48 130.917 10.7267 130.45 11.22C129.983 11.7133 129.703 12.4067 129.61 13.3H134.77C134.73 12.3933 134.497 11.7 134.07 11.22C133.657 10.7267 133.07 10.48 132.31 10.48ZM153.069 5.16C153.256 4.92 153.489 4.8 153.769 4.8C154.009 4.8 154.223 4.9 154.409 5.1C154.609 5.28667 154.709 5.50667 154.709 5.76C154.709 6 154.629 6.20667 154.469 6.38L149.749 12.26V18.06C149.749 18.3933 149.649 18.6533 149.449 18.84C149.263 19.0133 149.016 19.1 148.709 19.1C148.403 19.1 148.156 19.0133 147.969 18.84C147.783 18.6533 147.689 18.3933 147.689 18.06V12.26L142.969 6.38C142.809 6.20667 142.729 5.99333 142.729 5.74C142.729 5.48667 142.823 5.26667 143.009 5.08C143.196 4.89333 143.416 4.8 143.669 4.8C143.936 4.8 144.169 4.92 144.369 5.16L148.729 10.64L153.069 5.16ZM158.933 19.14C157.973 19.14 157.126 18.9333 156.393 18.52C155.673 18.1067 155.113 17.52 154.713 16.76C154.326 15.9867 154.133 15.0933 154.133 14.08C154.133 13.0533 154.326 12.16 154.713 11.4C155.113 10.6267 155.673 10.0333 156.393 9.62C157.126 9.20667 157.973 9 158.933 9C159.893 9 160.733 9.20667 161.453 9.62C162.186 10.0333 162.746 10.6267 163.133 11.4C163.533 12.16 163.733 13.0533 163.733 14.08C163.733 15.0933 163.533 15.9867 163.133 16.76C162.746 17.52 162.186 18.1067 161.453 18.52C160.733 18.9333 159.893 19.14 158.933 19.14ZM158.933 17.54C159.826 17.54 160.506 17.2467 160.973 16.66C161.453 16.0733 161.693 15.2133 161.693 14.08C161.693 12.96 161.453 12.1067 160.973 11.52C160.493 10.92 159.813 10.62 158.933 10.62C158.053 10.62 157.373 10.92 156.893 11.52C156.413 12.1067 156.173 12.96 156.173 14.08C156.173 15.2133 156.406 16.0733 156.873 16.66C157.353 17.2467 158.04 17.54 158.933 17.54ZM173.542 9.04C173.849 9.04 174.089 9.12667 174.262 9.3C174.449 9.47333 174.542 9.71333 174.542 10.02V18.16C174.542 18.44 174.449 18.6667 174.262 18.84C174.075 19.0133 173.829 19.1 173.522 19.1C173.242 19.1 173.015 19.02 172.842 18.86C172.669 18.6867 172.582 18.46 172.582 18.18V17.42C172.275 17.98 171.849 18.4067 171.302 18.7C170.769 18.9933 170.169 19.14 169.502 19.14C167.129 19.14 165.942 17.8333 165.942 15.22V10.02C165.942 9.71333 166.029 9.47333 166.202 9.3C166.389 9.12667 166.642 9.04 166.962 9.04C167.269 9.04 167.509 9.12667 167.682 9.3C167.869 9.47333 167.962 9.71333 167.962 10.02V15.2C167.962 15.9867 168.122 16.5667 168.442 16.94C168.762 17.3133 169.255 17.5 169.922 17.5C170.709 17.5 171.335 17.2467 171.802 16.74C172.282 16.2333 172.522 15.56 172.522 14.72V10.02C172.522 9.72667 172.615 9.49333 172.802 9.32C172.989 9.13333 173.235 9.04 173.542 9.04ZM182.489 9.04C183.129 9 183.449 9.27333 183.449 9.86C183.449 10.1533 183.375 10.3733 183.229 10.52C183.082 10.6667 182.829 10.7533 182.469 10.78L181.869 10.84C181.029 10.92 180.402 11.2133 179.989 11.72C179.589 12.2267 179.389 12.84 179.389 13.56V18.14C179.389 18.46 179.295 18.7 179.109 18.86C178.922 19.02 178.682 19.1 178.389 19.1C178.095 19.1 177.849 19.02 177.649 18.86C177.462 18.7 177.369 18.46 177.369 18.14V10C177.369 9.69333 177.462 9.46 177.649 9.3C177.849 9.12667 178.095 9.04 178.389 9.04C178.655 9.04 178.875 9.12667 179.049 9.3C179.235 9.46 179.329 9.68667 179.329 9.98V10.94C179.595 10.3533 179.982 9.90667 180.489 9.6C180.995 9.29333 181.569 9.11333 182.209 9.06L182.489 9.04ZM191.226 19.1C190.92 19.1 190.673 19.0067 190.486 18.82C190.3 18.62 190.206 18.3667 190.206 18.06V5.9C190.206 5.59333 190.293 5.35333 190.466 5.18C190.653 4.99333 190.906 4.9 191.226 4.9H198.386C199.026 4.9 199.346 5.18 199.346 5.74C199.346 6.3 199.026 6.58 198.386 6.58H192.246V11H197.986C198.626 11 198.946 11.28 198.946 11.84C198.946 12.4 198.626 12.68 197.986 12.68H192.246V18.06C192.246 18.38 192.153 18.6333 191.966 18.82C191.793 19.0067 191.546 19.1 191.226 19.1ZM204.984 9C206.278 9 207.238 9.32667 207.864 9.98C208.504 10.6333 208.824 11.6267 208.824 12.96V18.14C208.824 18.4467 208.738 18.6867 208.564 18.86C208.391 19.02 208.151 19.1 207.844 19.1C207.551 19.1 207.318 19.0133 207.144 18.84C206.971 18.6667 206.884 18.4333 206.884 18.14V17.4C206.631 17.96 206.251 18.3933 205.744 18.7C205.251 18.9933 204.671 19.14 204.004 19.14C203.364 19.14 202.778 19.0133 202.244 18.76C201.711 18.4933 201.291 18.1267 200.984 17.66C200.691 17.1933 200.544 16.6733 200.544 16.1C200.544 15.3933 200.724 14.84 201.084 14.44C201.458 14.0267 202.064 13.7333 202.904 13.56C203.758 13.3867 204.924 13.3 206.404 13.3H206.864V12.72C206.864 11.9733 206.711 11.4333 206.404 11.1C206.098 10.7667 205.604 10.6 204.924 10.6C204.458 10.6 204.018 10.66 203.604 10.78C203.191 10.9 202.738 11.0733 202.244 11.3C201.884 11.5 201.631 11.6 201.484 11.6C201.284 11.6 201.118 11.5267 200.984 11.38C200.864 11.2333 200.804 11.0467 200.804 10.82C200.804 10.62 200.858 10.4467 200.964 10.3C201.084 10.14 201.271 9.98667 201.524 9.84C201.991 9.58667 202.538 9.38667 203.164 9.24C203.791 9.08 204.398 9 204.984 9ZM204.364 17.64C205.098 17.64 205.698 17.3933 206.164 16.9C206.631 16.3933 206.864 15.7467 206.864 14.96V14.44H206.504C205.464 14.44 204.664 14.4867 204.104 14.58C203.544 14.6733 203.144 14.8333 202.904 15.06C202.664 15.2733 202.544 15.5867 202.544 16C202.544 16.48 202.718 16.8733 203.064 17.18C203.411 17.4867 203.844 17.64 204.364 17.64ZM218.528 9.64C218.608 9.44 218.721 9.29333 218.868 9.2C219.028 9.10667 219.194 9.06 219.368 9.06C219.621 9.06 219.841 9.14667 220.028 9.32C220.228 9.49333 220.328 9.7 220.328 9.94C220.328 10.0733 220.301 10.2 220.248 10.32L216.428 18.42C216.334 18.6333 216.188 18.8 215.988 18.92C215.801 19.0267 215.601 19.08 215.388 19.08C215.174 19.08 214.968 19.0267 214.768 18.92C214.581 18.8 214.441 18.6333 214.348 18.42L210.528 10.32C210.474 10.2133 210.448 10.0867 210.448 9.94C210.448 9.7 210.554 9.49333 210.768 9.32C210.981 9.14667 211.221 9.06 211.488 9.06C211.874 9.06 212.161 9.24667 212.348 9.62L215.448 16.5L218.528 9.64ZM226.081 19.14C225.121 19.14 224.275 18.9333 223.541 18.52C222.821 18.1067 222.261 17.52 221.861 16.76C221.475 15.9867 221.281 15.0933 221.281 14.08C221.281 13.0533 221.475 12.16 221.861 11.4C222.261 10.6267 222.821 10.0333 223.541 9.62C224.275 9.20667 225.121 9 226.081 9C227.041 9 227.881 9.20667 228.601 9.62C229.335 10.0333 229.895 10.6267 230.281 11.4C230.681 12.16 230.881 13.0533 230.881 14.08C230.881 15.0933 230.681 15.9867 230.281 16.76C229.895 17.52 229.335 18.1067 228.601 18.52C227.881 18.9333 227.041 19.14 226.081 19.14ZM226.081 17.54C226.975 17.54 227.655 17.2467 228.121 16.66C228.601 16.0733 228.841 15.2133 228.841 14.08C228.841 12.96 228.601 12.1067 228.121 11.52C227.641 10.92 226.961 10.62 226.081 10.62C225.201 10.62 224.521 10.92 224.041 11.52C223.561 12.1067 223.321 12.96 223.321 14.08C223.321 15.2133 223.555 16.0733 224.021 16.66C224.501 17.2467 225.188 17.54 226.081 17.54ZM238.25 9.04C238.89 9 239.21 9.27333 239.21 9.86C239.21 10.1533 239.137 10.3733 238.99 10.52C238.844 10.6667 238.59 10.7533 238.23 10.78L237.63 10.84C236.79 10.92 236.164 11.2133 235.75 11.72C235.35 12.2267 235.15 12.84 235.15 13.56V18.14C235.15 18.46 235.057 18.7 234.87 18.86C234.684 19.02 234.444 19.1 234.15 19.1C233.857 19.1 233.61 19.02 233.41 18.86C233.224 18.7 233.13 18.46 233.13 18.14V10C233.13 9.69333 233.224 9.46 233.41 9.3C233.61 9.12667 233.857 9.04 234.15 9.04C234.417 9.04 234.637 9.12667 234.81 9.3C234.997 9.46 235.09 9.68667 235.09 9.98V10.94C235.357 10.3533 235.744 9.90667 236.25 9.6C236.757 9.29333 237.33 9.11333 237.97 9.06L238.25 9.04ZM241.475 19.1C241.181 19.1 240.935 19.02 240.735 18.86C240.548 18.7 240.455 18.46 240.455 18.14V10.02C240.455 9.7 240.548 9.46 240.735 9.3C240.935 9.12667 241.181 9.04 241.475 9.04C241.768 9.04 242.008 9.12667 242.195 9.3C242.381 9.46 242.475 9.7 242.475 10.02V18.14C242.475 18.46 242.381 18.7 242.195 18.86C242.008 19.02 241.768 19.1 241.475 19.1ZM241.475 7.08C241.088 7.08 240.781 6.97333 240.555 6.76C240.328 6.54667 240.215 6.26667 240.215 5.92C240.215 5.57333 240.328 5.3 240.555 5.1C240.781 4.88667 241.088 4.78 241.475 4.78C241.848 4.78 242.148 4.88667 242.375 5.1C242.615 5.3 242.735 5.57333 242.735 5.92C242.735 6.26667 242.621 6.54667 242.395 6.76C242.168 6.97333 241.861 7.08 241.475 7.08ZM250.078 17.56C250.372 17.5867 250.578 17.6667 250.698 17.8C250.832 17.92 250.898 18.0933 250.898 18.32C250.898 18.5867 250.792 18.7933 250.578 18.94C250.378 19.0733 250.078 19.1267 249.678 19.1L249.138 19.06C248.058 18.98 247.252 18.6533 246.718 18.08C246.185 17.4933 245.918 16.6333 245.918 15.5V10.8H244.718C244.132 10.8 243.838 10.54 243.838 10.02C243.838 9.78 243.912 9.59333 244.058 9.46C244.218 9.31333 244.438 9.24 244.718 9.24H245.918V7.18C245.918 6.87333 246.005 6.63333 246.178 6.46C246.365 6.28667 246.612 6.2 246.918 6.2C247.225 6.2 247.472 6.28667 247.658 6.46C247.845 6.63333 247.938 6.87333 247.938 7.18V9.24H249.918C250.198 9.24 250.412 9.31333 250.558 9.46C250.718 9.59333 250.798 9.78 250.798 10.02C250.798 10.2733 250.718 10.4667 250.558 10.6C250.412 10.7333 250.198 10.8 249.918 10.8H247.938V15.64C247.938 16.2667 248.065 16.7267 248.318 17.02C248.585 17.3133 248.985 17.48 249.518 17.52L250.078 17.56ZM259.989 16.54C260.176 16.54 260.329 16.6133 260.449 16.76C260.569 16.9067 260.629 17.0933 260.629 17.32C260.629 17.7067 260.389 18.0333 259.909 18.3C259.443 18.5667 258.929 18.7733 258.369 18.92C257.823 19.0667 257.296 19.14 256.789 19.14C255.243 19.14 254.023 18.6933 253.129 17.8C252.236 16.8933 251.789 15.66 251.789 14.1C251.789 13.1 251.983 12.2133 252.369 11.44C252.769 10.6667 253.323 10.0667 254.029 9.64C254.749 9.21333 255.563 9 256.469 9C257.776 9 258.809 9.42 259.569 10.26C260.329 11.1 260.709 12.2333 260.709 13.66C260.709 14.1933 260.469 14.46 259.989 14.46H253.809C253.943 16.5267 254.936 17.56 256.789 17.56C257.283 17.56 257.709 17.4933 258.069 17.36C258.429 17.2267 258.809 17.0533 259.209 16.84C259.249 16.8133 259.356 16.76 259.529 16.68C259.716 16.5867 259.869 16.54 259.989 16.54ZM256.509 10.48C255.736 10.48 255.116 10.7267 254.649 11.22C254.183 11.7133 253.903 12.4067 253.809 13.3H258.969C258.929 12.3933 258.696 11.7 258.269 11.22C257.856 10.7267 257.269 10.48 256.509 10.48Z" fill="#415167"/>
</g>
<defs>
<clipPath id="clip0">
<rect width="331" height="60" fill="white"/>
</clipPath>
</defs>
</svg>
