<svg width="86" height="36" viewBox="0 0 86 36" fill="none" xmlns="http://www.w3.org/2000/svg">
<path d="M5.232 1.72C7.01333 1.72 8.38933 2.20533 9.36 3.176C10.3307 4.14667 10.816 5.53867 10.816 7.352C10.816 9.16533 10.3307 10.5627 9.36 11.544C8.38933 12.5147 7.01333 13 5.232 13H2.128C1.97867 13 1.85067 12.952 1.744 12.856C1.648 12.76 1.6 12.6427 1.6 12.504V7.688H0.448C0.32 7.688 0.213333 7.65067 0.128 7.576C0.0426667 7.50133 0 7.4 0 7.272C0 7.144 0.0373333 7.048 0.112 6.984C0.197333 6.90933 0.309333 6.872 0.448 6.872H1.6V2.216C1.6 2.07733 1.648 1.96 1.744 1.864C1.85067 1.768 1.97867 1.72 2.128 1.72H5.232ZM5.184 12.136C8.256 12.136 9.792 10.5413 9.792 7.352C9.792 4.17333 8.256 2.584 5.184 2.584H2.576V6.872H5.36C5.63733 6.872 5.776 7.00533 5.776 7.272C5.776 7.41067 5.73867 7.51733 5.664 7.592C5.58933 7.656 5.488 7.688 5.36 7.688H2.576V12.136H5.184ZM16.2118 13.112C15.4971 13.112 14.8678 12.9467 14.3238 12.616C13.7904 12.2853 13.3744 11.816 13.0758 11.208C12.7771 10.6 12.6278 9.89067 12.6278 9.08C12.6278 8.26933 12.7771 7.56 13.0758 6.952C13.3744 6.344 13.7904 5.87467 14.3238 5.544C14.8678 5.21333 15.4971 5.048 16.2118 5.048C16.9158 5.048 17.5398 5.21333 18.0838 5.544C18.6278 5.87467 19.0438 6.344 19.3318 6.952C19.6304 7.56 19.7798 8.26933 19.7798 9.08C19.7798 9.89067 19.6304 10.6 19.3318 11.208C19.0438 11.816 18.6278 12.2853 18.0838 12.616C17.5398 12.9467 16.9158 13.112 16.2118 13.112ZM16.1958 12.248C17.0171 12.248 17.6518 11.976 18.0998 11.432C18.5478 10.888 18.7718 10.104 18.7718 9.08C18.7718 8.07733 18.5424 7.29867 18.0838 6.744C17.6358 6.17867 17.0118 5.896 16.2118 5.896C15.4011 5.896 14.7718 6.17867 14.3238 6.744C13.8758 7.29867 13.6518 8.07733 13.6518 9.08C13.6518 10.104 13.8704 10.888 14.3078 11.432C14.7451 11.976 15.3744 12.248 16.1958 12.248ZM16.2118 15.928C16.0091 15.928 15.8384 15.864 15.6998 15.736C15.5718 15.608 15.5078 15.4373 15.5078 15.224C15.5078 15.0213 15.5718 14.856 15.6998 14.728C15.8384 14.6 16.0091 14.536 16.2118 14.536C16.4144 14.536 16.5798 14.6 16.7078 14.728C16.8464 14.856 16.9158 15.0213 16.9158 15.224C16.9158 15.4373 16.8464 15.608 16.7078 15.736C16.5798 15.864 16.4144 15.928 16.2118 15.928ZM14.8678 4.04C14.7718 4.2 14.6491 4.28 14.4998 4.28C14.3824 4.28 14.2811 4.24267 14.1957 4.168C14.1211 4.08267 14.0838 3.98133 14.0838 3.864C14.0838 3.768 14.1158 3.672 14.1798 3.576L15.6838 1.256C15.7691 1.14933 15.8491 1.06933 15.9238 1.016C16.0091 0.951999 16.1051 0.919999 16.2118 0.919999C16.3291 0.919999 16.4251 0.946666 16.4998 0.999999C16.5851 1.05333 16.6651 1.13867 16.7398 1.256L18.2438 3.576C18.3078 3.672 18.3398 3.768 18.3398 3.864C18.3398 3.98133 18.2971 4.08267 18.2118 4.168C18.1371 4.24267 18.0411 4.28 17.9238 4.28C17.7744 4.28 17.6518 4.2 17.5558 4.04L16.2118 1.816L14.8678 4.04ZM28.9778 13.112C28.2631 13.112 27.6338 12.9467 27.0898 12.616C26.5458 12.2853 26.1244 11.816 25.8258 11.208C25.5271 10.6 25.3778 9.90133 25.3778 9.112C25.3778 8.312 25.5271 7.608 25.8258 7C26.1351 6.38133 26.5618 5.90133 27.1058 5.56C27.6604 5.21867 28.2951 5.048 29.0098 5.048C29.4151 5.048 29.8098 5.10133 30.1938 5.208C30.5778 5.31467 30.9191 5.47467 31.2178 5.688C31.4098 5.82667 31.5431 5.95467 31.6178 6.072C31.7031 6.17867 31.7458 6.296 31.7458 6.424C31.7458 6.54133 31.7138 6.63733 31.6498 6.712C31.5858 6.78667 31.5058 6.824 31.4098 6.824C31.3031 6.824 31.1324 6.73333 30.8978 6.552C30.6204 6.34933 30.3431 6.18933 30.0658 6.072C29.7884 5.95467 29.4524 5.896 29.0578 5.896C28.2258 5.896 27.5751 6.184 27.1058 6.76C26.6364 7.32533 26.4018 8.10933 26.4018 9.112C26.4018 10.104 26.6311 10.8773 27.0898 11.432C27.5591 11.976 28.2098 12.248 29.0418 12.248C29.4471 12.248 29.7831 12.1893 30.0498 12.072C30.3271 11.9547 30.6258 11.7947 30.9458 11.592C31.0418 11.528 31.1324 11.4693 31.2178 11.416C31.3138 11.3627 31.3884 11.336 31.4418 11.336C31.5484 11.336 31.6338 11.3733 31.6978 11.448C31.7618 11.5227 31.7938 11.6133 31.7938 11.72C31.7938 11.848 31.7564 11.96 31.6818 12.056C31.6071 12.152 31.4631 12.2747 31.2498 12.424C30.9618 12.6373 30.6098 12.808 30.1938 12.936C29.7884 13.0533 29.3831 13.112 28.9778 13.112ZM36.5395 5.048C37.4782 5.048 38.1768 5.29333 38.6355 5.784C39.1048 6.27467 39.3395 7.016 39.3395 8.008V12.568C39.3395 12.7173 39.2968 12.84 39.2115 12.936C39.1262 13.0213 39.0088 13.064 38.8595 13.064C38.7102 13.064 38.5928 13.0213 38.5075 12.936C38.4222 12.84 38.3795 12.7173 38.3795 12.568V11.608C38.1555 12.088 37.8302 12.4613 37.4035 12.728C36.9768 12.984 36.4862 13.112 35.9315 13.112C35.4302 13.112 34.9715 13.0107 34.5555 12.808C34.1395 12.6053 33.8088 12.3227 33.5635 11.96C33.3288 11.5973 33.2115 11.1973 33.2115 10.76C33.2115 10.184 33.3608 9.736 33.6595 9.416C33.9582 9.096 34.4542 8.86667 35.1475 8.728C35.8408 8.58933 36.8062 8.52 38.0435 8.52H38.3795V7.928C38.3795 7.224 38.2355 6.712 37.9475 6.392C37.6595 6.06133 37.2062 5.896 36.5875 5.896C35.7982 5.896 35.0462 6.104 34.3315 6.52C34.2995 6.54133 34.2142 6.6 34.0755 6.696C33.9475 6.78133 33.8355 6.824 33.7395 6.824C33.6328 6.824 33.5422 6.78667 33.4675 6.712C33.4035 6.62667 33.3715 6.52533 33.3715 6.408C33.3715 6.17333 33.5582 5.944 33.9315 5.72C34.3048 5.50667 34.7208 5.34133 35.1795 5.224C35.6382 5.10667 36.0915 5.048 36.5395 5.048ZM36.0115 12.264C36.7048 12.264 37.2702 12.0293 37.7075 11.56C38.1555 11.0907 38.3795 10.4933 38.3795 9.768V9.24H38.0755C37.0515 9.24 36.2675 9.28267 35.7235 9.368C35.1795 9.45333 34.7955 9.60267 34.5715 9.816C34.3475 10.0187 34.2355 10.3173 34.2355 10.712C34.2355 11.16 34.4062 11.5333 34.7475 11.832C35.0888 12.12 35.5102 12.264 36.0115 12.264ZM44.9774 13.112C44.2627 13.112 43.6334 12.9467 43.0894 12.616C42.556 12.2853 42.14 11.816 41.8414 11.208C41.5427 10.6 41.3934 9.89067 41.3934 9.08C41.3934 8.26933 41.5427 7.56 41.8414 6.952C42.14 6.344 42.556 5.87467 43.0894 5.544C43.6334 5.21333 44.2627 5.048 44.9774 5.048C45.6814 5.048 46.3054 5.21333 46.8494 5.544C47.3934 5.87467 47.8094 6.344 48.0974 6.952C48.396 7.56 48.5454 8.26933 48.5454 9.08C48.5454 9.89067 48.396 10.6 48.0974 11.208C47.8094 11.816 47.3934 12.2853 46.8494 12.616C46.3054 12.9467 45.6814 13.112 44.9774 13.112ZM44.9614 12.248C45.7827 12.248 46.4174 11.976 46.8654 11.432C47.3134 10.888 47.5374 10.104 47.5374 9.08C47.5374 8.07733 47.308 7.29867 46.8494 6.744C46.4014 6.17867 45.7774 5.896 44.9774 5.896C44.1667 5.896 43.5374 6.17867 43.0894 6.744C42.6414 7.29867 42.4174 8.07733 42.4174 9.08C42.4174 10.104 42.636 10.888 43.0734 11.432C43.5107 11.976 44.14 12.248 44.9614 12.248ZM8.048 23.72C8.28267 23.72 8.45867 23.784 8.576 23.912C8.704 24.04 8.768 24.2053 8.768 24.408C8.768 24.6 8.70933 24.8027 8.592 25.016L3.36 34.68C3.18933 34.9787 2.95467 35.128 2.656 35.128C2.45333 35.128 2.26667 35.0587 2.096 34.92C1.936 34.7707 1.856 34.5893 1.856 34.376C1.856 34.248 1.89867 34.0987 1.984 33.928L6.8 25.08H1.6C1.344 25.08 1.152 25.0213 1.024 24.904C0.896 24.7867 0.832 24.6213 0.832 24.408C0.832 23.9493 1.088 23.72 1.6 23.72H8.048ZM14.3938 35.128C13.0818 35.128 12.0791 34.6373 11.3858 33.656C10.7031 32.6747 10.3618 31.2453 10.3618 29.368C10.3618 27.48 10.7031 26.0453 11.3858 25.064C12.0791 24.0827 13.0818 23.592 14.3938 23.592C15.7058 23.592 16.7031 24.0827 17.3858 25.064C18.0791 26.0347 18.4258 27.464 18.4258 29.352C18.4258 31.24 18.0791 32.6747 17.3858 33.656C16.7031 34.6373 15.7058 35.128 14.3938 35.128ZM14.3938 33.8C15.2151 33.8 15.8178 33.4427 16.2018 32.728C16.5858 32.0133 16.7778 30.888 16.7778 29.352C16.7778 27.816 16.5858 26.696 16.2018 25.992C15.8178 25.2773 15.2151 24.92 14.3938 24.92C13.5724 24.92 12.9698 25.2773 12.5858 25.992C12.2018 26.696 12.0098 27.816 12.0098 29.352C12.0098 30.8773 12.2018 32.0027 12.5858 32.728C12.9698 33.4427 13.5724 33.8 14.3938 33.8ZM23.9875 35.128C22.6755 35.128 21.6728 34.6373 20.9795 33.656C20.2968 32.6747 19.9555 31.2453 19.9555 29.368C19.9555 27.48 20.2968 26.0453 20.9795 25.064C21.6728 24.0827 22.6755 23.592 23.9875 23.592C25.2995 23.592 26.2968 24.0827 26.9795 25.064C27.6728 26.0347 28.0195 27.464 28.0195 29.352C28.0195 31.24 27.6728 32.6747 26.9795 33.656C26.2968 34.6373 25.2995 35.128 23.9875 35.128ZM23.9875 33.8C24.8088 33.8 25.4115 33.4427 25.7955 32.728C26.1795 32.0133 26.3715 30.888 26.3715 29.352C26.3715 27.816 26.1795 26.696 25.7955 25.992C25.4115 25.2773 24.8088 24.92 23.9875 24.92C23.1662 24.92 22.5635 25.2773 22.1795 25.992C21.7955 26.696 21.6035 27.816 21.6035 29.352C21.6035 30.8773 21.7955 32.0027 22.1795 32.728C22.5635 33.4427 23.1662 33.8 23.9875 33.8ZM34.728 31.384C34.4827 31.384 34.296 31.3307 34.168 31.224C34.04 31.1067 33.976 30.9467 33.976 30.744C33.976 30.5413 34.04 30.3813 34.168 30.264C34.296 30.1467 34.4827 30.088 34.728 30.088H38.136C38.3813 30.088 38.568 30.1467 38.696 30.264C38.824 30.3813 38.888 30.5413 38.888 30.744C38.888 30.9467 38.824 31.1067 38.696 31.224C38.568 31.3307 38.3813 31.384 38.136 31.384H34.728ZM50.9261 29.208C51.5875 29.4 52.0995 29.7413 52.4621 30.232C52.8248 30.7227 53.0061 31.3093 53.0061 31.992C53.0061 32.9733 52.6435 33.7413 51.9181 34.296C51.2035 34.84 50.1901 35.112 48.8781 35.112C47.5661 35.112 46.5475 34.84 45.8221 34.296C45.1075 33.7413 44.7501 32.9733 44.7501 31.992C44.7501 31.2987 44.9315 30.7067 45.2941 30.216C45.6675 29.7253 46.1848 29.3893 46.8461 29.208C46.2808 28.9947 45.8328 28.6587 45.5021 28.2C45.1821 27.7413 45.0221 27.208 45.0221 26.6C45.0221 25.672 45.3635 24.9413 46.0461 24.408C46.7288 23.864 47.6728 23.592 48.8781 23.592C50.0835 23.592 51.0275 23.864 51.7101 24.408C52.3928 24.9413 52.7341 25.672 52.7341 26.6C52.7341 27.208 52.5688 27.7467 52.2381 28.216C51.9181 28.6747 51.4808 29.0053 50.9261 29.208ZM48.8781 24.92C48.1315 24.92 47.5661 25.08 47.1821 25.4C46.7981 25.7093 46.6061 26.1573 46.6061 26.744C46.6061 27.352 46.7981 27.816 47.1821 28.136C47.5661 28.456 48.1315 28.616 48.8781 28.616C49.6248 28.616 50.1901 28.456 50.5741 28.136C50.9581 27.816 51.1501 27.352 51.1501 26.744C51.1501 26.1573 50.9581 25.7093 50.5741 25.4C50.1901 25.08 49.6248 24.92 48.8781 24.92ZM48.8781 33.784C50.5741 33.784 51.4221 33.1493 51.4221 31.88C51.4221 30.6 50.5741 29.96 48.8781 29.96C47.1821 29.96 46.3341 30.6 46.3341 31.88C46.3341 33.1493 47.1821 33.784 48.8781 33.784ZM58.4719 35.128C57.1599 35.128 56.1572 34.6373 55.4639 33.656C54.7812 32.6747 54.4399 31.2453 54.4399 29.368C54.4399 27.48 54.7812 26.0453 55.4639 25.064C56.1572 24.0827 57.1599 23.592 58.4719 23.592C59.7839 23.592 60.7812 24.0827 61.4639 25.064C62.1572 26.0347 62.5039 27.464 62.5039 29.352C62.5039 31.24 62.1572 32.6747 61.4639 33.656C60.7812 34.6373 59.7839 35.128 58.4719 35.128ZM58.4719 33.8C59.2932 33.8 59.8959 33.4427 60.2799 32.728C60.6639 32.0133 60.8559 30.888 60.8559 29.352C60.8559 27.816 60.6639 26.696 60.2799 25.992C59.8959 25.2773 59.2932 24.92 58.4719 24.92C57.6505 24.92 57.0479 25.2773 56.6639 25.992C56.2799 26.696 56.0879 27.816 56.0879 29.352C56.0879 30.8773 56.2799 32.0027 56.6639 32.728C57.0479 33.4427 57.6505 33.8 58.4719 33.8ZM68.0656 35.128C66.7536 35.128 65.751 34.6373 65.0576 33.656C64.375 32.6747 64.0336 31.2453 64.0336 29.368C64.0336 27.48 64.375 26.0453 65.0576 25.064C65.751 24.0827 66.7536 23.592 68.0656 23.592C69.3776 23.592 70.375 24.0827 71.0576 25.064C71.751 26.0347 72.0976 27.464 72.0976 29.352C72.0976 31.24 71.751 32.6747 71.0576 33.656C70.375 34.6373 69.3776 35.128 68.0656 35.128ZM68.0656 33.8C68.887 33.8 69.4896 33.4427 69.8736 32.728C70.2576 32.0133 70.4496 30.888 70.4496 29.352C70.4496 27.816 70.2576 26.696 69.8736 25.992C69.4896 25.2773 68.887 24.92 68.0656 24.92C67.2443 24.92 66.6416 25.2773 66.2576 25.992C65.8736 26.696 65.6816 27.816 65.6816 29.352C65.6816 30.8773 65.8736 32.0027 66.2576 32.728C66.6416 33.4427 67.2443 33.8 68.0656 33.8ZM82.9394 27C84.6887 27 85.5634 28.0507 85.5634 30.152V34.312C85.5634 34.5573 85.4887 34.7493 85.3394 34.888C85.19 35.016 84.9927 35.08 84.7474 35.08C84.5127 35.08 84.3207 35.016 84.1714 34.888C84.022 34.7493 83.9474 34.5573 83.9474 34.312V30.168C83.9474 29.5173 83.83 29.048 83.5954 28.76C83.3607 28.4613 82.9927 28.312 82.4914 28.312C81.9047 28.312 81.4407 28.5147 81.0994 28.92C80.758 29.3147 80.5874 29.8587 80.5874 30.552V34.312C80.5874 34.5573 80.5127 34.7493 80.3634 34.888C80.214 35.016 80.0167 35.08 79.7714 35.08C79.5367 35.08 79.3447 35.016 79.1954 34.888C79.046 34.7493 78.9714 34.5573 78.9714 34.312V30.168C78.9714 29.5173 78.854 29.048 78.6194 28.76C78.3847 28.4613 78.0167 28.312 77.5154 28.312C76.9287 28.312 76.4594 28.5147 76.1074 28.92C75.766 29.3147 75.5954 29.8587 75.5954 30.552V34.312C75.5954 34.5573 75.5207 34.7493 75.3714 34.888C75.222 35.016 75.03 35.08 74.7954 35.08C74.5607 35.08 74.3634 35.016 74.2034 34.888C74.054 34.7493 73.9794 34.5573 73.9794 34.312V27.8C73.9794 27.5653 74.0594 27.3787 74.2194 27.24C74.3794 27.1013 74.5714 27.032 74.7954 27.032C75.0194 27.032 75.2007 27.1013 75.3394 27.24C75.4887 27.368 75.5634 27.5493 75.5634 27.784V28.376C75.798 27.928 76.1234 27.5867 76.5394 27.352C76.9554 27.1173 77.4354 27 77.9794 27C78.5767 27 79.0674 27.1227 79.4514 27.368C79.846 27.6133 80.1394 27.992 80.3314 28.504C80.566 28.0453 80.9127 27.6827 81.3714 27.416C81.83 27.1387 82.3527 27 82.9394 27Z" fill="#415167"/>
</svg>
